<?xml version="1.0" encoding="UTF-8"?>
<svg version="1.1" xmlns="http://www.w3.org/2000/svg" width="256" height="256">
<path d="M0 0 C19.32368488 3.92143238 37.29629548 15.05129235 49.0234375 30.9453125 C57.41980746 43.78561486 58.45247418 57.38496694 56.59765625 72.30859375 C53.40671797 86.7754857 45.52662779 99.91549164 33.2734375 108.3828125 C29.55889481 110.74911377 25.80209974 112.43814694 21.5234375 113.5078125 C18.5260726 112.75847128 18.12083266 112.11842468 16.3984375 109.6328125 C10.94001089 99.85241403 9.17952341 87.91273496 12.0234375 77.0703125 C15.72090904 71.17746724 20.47055762 67.22312674 27.0234375 64.8828125 C25.89808594 64.75326172 25.89808594 64.75326172 24.75 64.62109375 C14.10694983 63.16002011 5.93229264 60.1967082 -1.02734375 51.7265625 C-10.44693239 37.98415662 -15.38667268 22.61921348 -14.9765625 5.8828125 C-12.58769126 -2.51902246 -7.37431887 -1.20117771 0 0 Z " fill="#4B3676" transform="translate(67.9765625,42.1171875)"/>
<path d="M0 0 C2.55497664 2.55497664 2.31010466 4.32149148 2.38037109 7.81396484 C2.3401987 25.56651101 -2.14848679 41.74770515 -14.703125 54.87109375 C-21.9054663 61.54673322 -29.30336588 63.81265705 -39 65 C-38.32453125 65.37511719 -37.6490625 65.75023438 -36.953125 66.13671875 C-30.80796435 69.66219386 -26.59986615 72.34316308 -23.6875 79 C-21.37307226 88.63302357 -24.07309607 100.13641685 -28 109 C-29.94140625 111.36328125 -29.94140625 111.36328125 -32 113 C-40.4464651 113.3378586 -47.65115497 107.51105866 -53.625 102.0625 C-64.60245602 90.52060032 -69.17892926 76.04963296 -69.375 60.4375 C-69.38917969 59.56270996 -69.40335938 58.68791992 -69.41796875 57.78662109 C-69.31605532 44.20410879 -63.59091844 31.99859745 -54.30078125 22.18359375 C-41.45860321 9.99551646 -18.4907025 -4.17752908 0 0 Z " fill="#4B3676" transform="translate(204,42)"/>
<path d="M0 0 C7.92 0 15.84 0 24 0 C24 1.32 24 2.64 24 4 C22.02 4.99 22.02 4.99 20 6 C19.90091872 11.1777593 19.82843194 16.35496347 19.78027344 21.53344727 C19.76019214 23.29396175 19.73292121 25.05440982 19.69824219 26.81469727 C19.64956888 29.34928802 19.62699695 31.88299495 19.609375 34.41796875 C19.58872986 35.20149216 19.56808472 35.98501556 19.54681396 36.7922821 C19.54526807 40.58067862 19.83969138 42.7490078 21.89941406 45.97387695 C25.59308293 49.53661033 28.5710126 49.28881363 33.51953125 49.203125 C36.89020076 48.92710167 38.58744021 48.41255979 41 46 C43.58193095 38.54512894 43.29657422 31.06670701 43.25 23.25 C43.25773437 21.93644531 43.26546875 20.62289062 43.2734375 19.26953125 C43.27085938 18.01011719 43.26828125 16.75070313 43.265625 15.453125 C43.26336914 14.31004883 43.26111328 13.16697266 43.25878906 11.98925781 C43.00562145 9.06493302 42.68366967 7.38578379 41 5 C40.01 4.67 39.02 4.34 38 4 C38.33 2.68 38.66 1.36 39 0 C44.61 0 50.22 0 56 0 C56 1.32 56 2.64 56 4 C54.02 4.99 54.02 4.99 52 6 C51.98541748 7.01835937 51.97083496 8.03671875 51.95581055 9.0859375 C51.89745571 12.89568672 51.82022822 16.70486766 51.73754883 20.51416016 C51.70447322 22.15696937 51.67638823 23.79988747 51.65356445 25.44287109 C51.61969595 27.816549 51.56736925 30.18924441 51.51171875 32.5625 C51.50213387 33.64893799 51.50213387 33.64893799 51.49235535 34.75732422 C51.32521524 40.66909221 50.18510605 46.31780822 46.3515625 51.0234375 C45.78179687 51.46945313 45.21203125 51.91546875 44.625 52.375 C44.06039062 52.83648437 43.49578125 53.29796875 42.9140625 53.7734375 C35.91137616 58.26087324 27.99149175 57.64060054 20 57 C13.97842023 55.43687605 10.50753398 51.99557871 7 47 C5.78790397 43.36371191 5.80752751 39.98015029 5.75390625 36.19140625 C5.72097325 34.62434326 5.68776151 33.0572861 5.65429688 31.49023438 C5.60686866 29.02372167 5.56241626 26.55723355 5.52319336 24.09057617 C5.48343594 21.70727347 5.43190876 19.32444606 5.37890625 16.94140625 C5.3704921 16.20588028 5.36207794 15.47035431 5.35340881 14.71253967 C5.24929744 9.529415 5.24929744 9.529415 3 5 C2.01 4.67 1.02 4.34 0 4 C0 2.68 0 1.36 0 0 Z " fill="#0F120B" transform="translate(56,172)"/>
<path d="M0 0 C3.96 0 7.92 0 12 0 C14.94493773 6.93684002 17.75759798 13.90192226 20.4453125 20.94140625 C20.89411774 22.11320938 20.89411774 22.11320938 21.35198975 23.3086853 C22.59485584 26.55474598 23.83690307 29.80103697 25.06689453 33.05200195 C25.97742458 35.45548813 26.89797308 37.85493158 27.8203125 40.25390625 C28.23290817 41.35539757 28.23290817 41.35539757 28.65383911 42.47914124 C30.6881751 47.73436043 32.39906813 49.93271208 37 53 C36.34 54.32 35.68 55.64 35 57 C27.74 57 20.48 57 13 57 C12.67 55.35 12.34 53.7 12 52 C14.475 51.505 14.475 51.505 17 51 C16.01 47.04 15.02 43.08 14 39 C7.73 39 1.46 39 -5 39 C-5.66 42.63 -6.32 46.26 -7 50 C-5.35 50.66 -3.7 51.32 -2 52 C-2.33 53.65 -2.66 55.3 -3 57 C-8.28 57 -13.56 57 -19 57 C-19.33 55.35 -19.66 53.7 -20 52 C-18.35161794 50.31524716 -16.68119827 48.65200724 -15 47 C-13.45495457 44.11054187 -12.35392397 41.08192732 -11.23046875 38.0078125 C-10.90460281 37.14364716 -10.57873688 36.27948181 -10.24299622 35.38912964 C-9.56003624 33.56773184 -8.88386092 31.7437772 -8.21411133 29.91748047 C-7.19086869 27.13416315 -6.14112617 24.3619302 -5.08789062 21.58984375 C-4.42547397 19.81309918 -3.76461403 18.03577329 -3.10546875 16.2578125 C-2.79304733 15.4346756 -2.48062592 14.6115387 -2.15873718 13.76345825 C-0.41317152 8.94664348 0.34042086 5.12386924 0 0 Z M4 14 C2.99619084 16.79035046 1.9968055 19.58214855 1 22.375 C0.71382812 23.1690625 0.42765625 23.963125 0.1328125 24.78125 C-0.13789063 25.54179687 -0.40859375 26.30234375 -0.6875 27.0859375 C-0.93886719 27.7876709 -1.19023437 28.4894043 -1.44921875 29.21240234 C-2.0981509 31.00680111 -2.0981509 31.00680111 -2 33 C2.62 33 7.24 33 12 33 C9.69 26.73 7.38 20.46 5 14 C4.67 14 4.34 14 4 14 Z " fill="#10130B" transform="translate(213,172)"/>
<path d="M0 0 C1.609375 1.1015625 1.609375 1.1015625 3.171875 4.2890625 C3.63326489 8.30974583 3.75118013 12.06011632 3.609375 16.1015625 C-0.140625 17.2265625 -0.140625 17.2265625 -2.390625 16.1015625 C-3.0419587 14.83302612 -3.63937779 13.53637517 -4.203125 12.2265625 C-6.0398367 8.48610582 -7.31592032 6.55034639 -11.390625 5.1015625 C-16.02204811 4.42400245 -19.41358801 4.65913066 -23.703125 6.6015625 C-28.10356778 10.69499764 -30.51929859 15.46192195 -30.921875 21.50390625 C-30.93847404 23.01556976 -30.92752931 24.52775838 -30.890625 26.0390625 C-30.87358521 27.22266357 -30.87358521 27.22266357 -30.85620117 28.43017578 C-30.61040676 35.79487658 -29.09879343 41.00651287 -24.203125 46.6015625 C-19.23885358 49.24917392 -14.62128237 49.71389982 -9.203125 48.2265625 C-5.2030989 45.20432056 -2.92010161 41.38014528 -0.390625 37.1015625 C1.259375 37.4315625 2.909375 37.7615625 4.609375 38.1015625 C4.49467363 39.85226767 4.36718472 41.60213786 4.234375 43.3515625 C4.16476563 44.32609375 4.09515625 45.300625 4.0234375 46.3046875 C3.61490692 49.06419595 3.16223186 50.79798676 1.609375 53.1015625 C-7.42215033 57.61732516 -19.38774164 57.86940194 -29.01171875 55.03515625 C-36.49518759 51.60640086 -40.87692159 47.14654767 -44.5078125 39.859375 C-47.1838006 31.49987236 -46.53438427 21.30098222 -42.828125 13.4140625 C-38.52386106 6.07975728 -33.33419908 1.71284373 -25.33203125 -1.20703125 C-17.30565112 -3.09371024 -7.73998438 -3.11345236 0 0 Z " fill="#11140C" transform="translate(158.390625,172.8984375)"/>
<path d="M0 0 C10.895572 6.49256688 15.59290041 19.37577787 19 31 C19.20753906 30.20078125 19.41507813 29.4015625 19.62890625 28.578125 C22.57736118 18.06731494 26.46702278 7.26369348 35.94140625 0.984375 C39.36615611 -0.6532663 42.20798024 -0.93462035 46 -1 C46.66 -0.67 47.32 -0.34 48 0 C47.7890625 2.38671875 47.7890625 2.38671875 47 5 C44.9609375 6.08203125 44.9609375 6.08203125 42.375 6.8125 C35.36248942 9.3434061 31.85653804 13.36890092 28.49609375 19.94140625 C25.55731891 26.63109598 24 32.47472583 24 39.8125 C24 43 24 43 23 45 C22.88987499 47.01597145 22.8435092 49.03553865 22.82641602 51.05444336 C22.81292618 52.32593735 22.79943634 53.59743134 22.78553772 54.90745544 C22.78047777 55.58885527 22.77541782 56.27025509 22.77020454 56.97230339 C22.7538043 59.10308893 22.73056753 61.23369734 22.70530701 63.36439514 C22.63450086 69.4227721 22.57438305 75.48122105 22.52319336 81.53979492 C22.49141201 85.24451867 22.45013988 88.9490383 22.40299797 92.65359688 C22.38697389 94.06616103 22.37465417 95.47877221 22.36609077 96.89140129 C22.35394508 98.86639626 22.32876268 100.84129811 22.30297852 102.81616211 C22.29267105 103.94042099 22.28236359 105.06467987 22.27174377 106.2230072 C22 109 22 109 20 112 C18.0625 111.25 18.0625 111.25 16 110 C14.80536152 106.70691581 14.85117442 103.44012972 14.81054688 99.96557617 C14.79382935 98.74718552 14.77711182 97.52879486 14.7598877 96.27348328 C14.74631226 94.95991348 14.73273682 93.64634369 14.71875 92.29296875 C14.70069384 90.92539255 14.68209002 89.55782349 14.66296387 88.19026184 C14.60340343 83.85606716 14.55122889 79.52180007 14.5 75.1875 C14.44057151 70.17282077 14.37805968 65.15821557 14.30812073 60.14367104 C14.28175286 58.14361147 14.26087914 56.14348189 14.2401123 54.14335632 C14.18479371 46.94783281 14.18479371 46.94783281 13.41992188 39.8059082 C13 37 13 37 14 34 C13.24326673 31.35290581 12.42180057 28.87349343 11.4375 26.3125 C11.16228516 25.59296143 10.88707031 24.87342285 10.60351562 24.13208008 C7.96493902 17.49882471 5.19422212 11.99638882 -1 8.125 C-3.98072916 7.00722656 -6.95869764 5.94135549 -10 5 C-10 3.35 -10 1.7 -10 0 C-6.59813917 -1.70093041 -3.48528277 -1.12197459 0 0 Z " fill="#4C3671" transform="translate(111,35)"/>
<path d="M0 0 C7.92 0 15.84 0 24 0 C24 1.32 24 2.64 24 4 C22.02 4.99 22.02 4.99 20 6 C18.59724166 27.51741191 18.59724166 27.51741191 20 49 C27.95849246 49.77794992 27.95849246 49.77794992 35.0625 46.875 C36.99897547 44.00152027 38.59975295 41.16898016 40 38 C41.32 38 42.64 38 44 38 C44.2361959 44.40353322 43.823321 49.84629161 42 56 C37.54672363 57.11235685 33.19551227 57.12854871 28.63671875 57.09765625 C27.84473587 57.0962413 27.05275299 57.09482635 26.23677063 57.09336853 C23.72030781 57.08779457 21.20393569 57.07524693 18.6875 57.0625 C16.97591275 57.05748163 15.26432409 57.05291931 13.55273438 57.04882812 C9.36845492 57.03783368 5.18424281 57.02058707 1 57 C0.67 55.35 0.34 53.7 0 52 C0.639375 51.7525 1.27875 51.505 1.9375 51.25 C4.09292947 50.22796004 4.09292947 50.22796004 4.62060547 48.4296875 C5.1693439 44.91550161 5.14233201 41.42213122 5.1328125 37.875 C5.13376923 37.09108887 5.13472595 36.30717773 5.13571167 35.49951172 C5.13639088 33.84537679 5.13455469 32.19123916 5.13037109 30.53710938 C5.12501917 28.00905353 5.13032485 25.48117534 5.13671875 22.953125 C5.13605792 21.34374961 5.13477666 19.73437433 5.1328125 18.125 C5.13483673 17.3707373 5.13686096 16.61647461 5.13894653 15.83935547 C5.18947465 10.81918815 5.18947465 10.81918815 4 6 C2.0162233 4.71563266 2.0162233 4.71563266 0 4 C0 2.68 0 1.36 0 0 Z " fill="#15180E" transform="translate(12,172)"/>
<path d="M0 0 C7.92 0 15.84 0 24 0 C24 1.32 24 2.64 24 4 C22.35 4.33 20.7 4.66 19 5 C19 20.18 19 35.36 19 51 C20.65 51.33 22.3 51.66 24 52 C24 53.32 24 54.64 24 56 C21.0751367 56.84191782 18.49258344 57.11819313 15.453125 57.09765625 C14.60878906 57.09443359 13.76445312 57.09121094 12.89453125 57.08789062 C11.58548828 57.07532227 11.58548828 57.07532227 10.25 57.0625 C9.36183594 57.05798828 8.47367188 57.05347656 7.55859375 57.04882812 C5.37232671 57.037074 3.18619821 57.02064249 1 57 C0.67 55.35 0.34 53.7 0 52 C1.32 51.34 2.64 50.68 4 50 C4 35.48 4 20.96 4 6 C2.68 5.34 1.36 4.68 0 4 C0 2.68 0 1.36 0 0 Z " fill="#0F110B" transform="translate(167,172)"/>
<path d="" fill="#000000" transform="translate(0,0)"/>
<path d="" fill="#000000" transform="translate(0,0)"/>
<path d="" fill="#000000" transform="translate(0,0)"/>
<path d="" fill="#000000" transform="translate(0,0)"/>
<path d="" fill="#000000" transform="translate(0,0)"/>
</svg>
