<?xml version="1.0" encoding="UTF-8"?>
<svg version="1.1" xmlns="http://www.w3.org/2000/svg" width="512" height="512">
<path d="M0 0 C1.47405872 -0.00374318 2.94811545 -0.00834735 4.42216909 -0.01373065 C8.44628231 -0.02589369 12.47031198 -0.02570814 16.49443936 -0.02334189 C20.8449996 -0.02293202 25.19553366 -0.03398912 29.54608154 -0.04345703 C38.06006086 -0.06003148 46.57401247 -0.06556498 55.08800657 -0.06668179 C62.01313645 -0.067634 68.93825724 -0.07175295 75.86338425 -0.07808304 C95.52311813 -0.09568617 115.18283023 -0.10492343 134.84257205 -0.10342209 C135.90123073 -0.10334218 136.95988941 -0.10326227 138.05062866 -0.10317993 C139.6405691 -0.10305729 139.6405691 -0.10305729 141.26262955 -0.10293217 C158.43204414 -0.10211966 175.60137093 -0.12125104 192.77076013 -0.14945666 C210.42538044 -0.17822916 228.07995799 -0.19199454 245.73460233 -0.19026911 C255.63617182 -0.18960669 265.53764926 -0.19503386 275.43919754 -0.21662521 C283.87098519 -0.23489461 292.30263908 -0.23913731 300.73443802 -0.22560637 C305.03027943 -0.21910551 309.32586465 -0.21885426 313.62168121 -0.23631287 C345.17130995 -0.35640491 371.63725141 3.34635193 395.38412476 26.36508179 C410.05787769 41.16811889 420.29976591 62.50114314 420.33475208 83.54924488 C420.33920993 84.79776291 420.34366777 86.04628093 420.3482607 87.33263284 C420.34817142 88.71029589 420.34798159 90.08795893 420.34770203 91.46562195 C420.35100356 92.93536402 420.35472974 94.40510519 420.35884351 95.87484521 C420.36883898 99.91023348 420.37257635 103.94560689 420.37523282 107.98100579 C420.37914325 112.33505578 420.38872119 116.68909409 420.39744568 121.0431366 C420.41719097 131.55767885 420.42727462 142.07222204 420.43617347 152.58677819 C420.44056023 157.54315028 420.4459261 162.49952131 420.45116234 167.45589256 C420.46817398 183.9411322 420.48266637 200.42637117 420.48991108 216.91161823 C420.49182086 221.18785414 420.4937412 225.46409004 420.49569702 229.74032593 C420.49618076 230.80311373 420.4966645 231.86590153 420.4971629 232.96089502 C420.50545656 250.16295575 420.53078254 267.3649468 420.5632777 284.56697712 C420.59639678 302.24403453 420.61436429 319.9210566 420.61755532 337.59814519 C420.61971611 347.51656268 420.62840134 357.43487859 420.65401649 367.35326576 C420.67578995 375.80346649 420.68374142 384.25354096 420.67404971 392.70376656 C420.66952397 397.00970463 420.67128977 401.31538258 420.69081116 405.62128448 C420.82784684 437.64590216 417.00217384 463.19906599 393.98568726 487.63851929 C378.75819435 502.01173489 358.0855272 512.36654928 336.90030098 512.40164661 C335.64768286 512.40610446 334.39506474 512.4105623 333.10448849 512.41515523 C331.72220619 512.41506595 330.33992388 512.41487612 328.9576416 512.41459656 C327.48306204 512.41789807 326.00848338 512.42162425 324.53390586 512.42573804 C320.4851854 512.43573368 316.43647977 512.43947091 312.38774872 512.44212735 C308.01940281 512.4460377 303.65106855 512.4556156 299.2827301 512.46434021 C288.73408089 512.48408507 278.18543075 512.4941688 267.63676769 512.503068 C262.66482564 512.50745457 257.69288466 512.51282046 252.72094345 512.51805687 C236.18508945 512.53506797 219.64923611 512.54956073 203.11337471 512.55680561 C198.82406742 512.5587154 194.53476015 512.56063574 190.24545288 512.56259155 C189.17941215 512.56307529 188.11337143 512.56355903 187.01502644 512.56405743 C169.75732479 512.57235247 152.49969257 512.59768104 135.24202122 512.63017223 C117.50959803 512.66328403 99.77721007 512.68125814 82.04475582 512.68444985 C72.09451228 512.68661124 62.14436997 512.69530542 52.19415665 512.72091103 C43.71757702 512.74267446 35.24112321 512.75064081 26.76451881 512.74094424 C22.44452812 512.73641571 18.12479671 512.73820083 13.804842 512.75770569 C9.83925774 512.77545477 5.87411964 512.77424581 1.90852986 512.7588084 C0.48447153 512.75644996 -0.93961867 512.76066269 -2.36362861 512.77263705 C-27.56759282 512.97120898 -49.61760087 502.84863144 -67.79946899 485.70492554 C-81.8499121 471.3267116 -91.90015547 450.20176704 -91.93369007 429.96998882 C-91.94037684 428.09198669 -91.94037684 428.09198669 -91.94719869 426.17604512 C-91.9471094 424.79445182 -91.94691958 423.41285853 -91.94664001 422.03126526 C-91.94994154 420.55739839 -91.95366771 419.08353242 -91.95778149 417.6096676 C-91.96777716 413.56287775 -91.97151437 409.51610274 -91.9741708 405.4693023 C-91.97808119 401.10298226 -91.98765912 396.73667389 -91.99638367 392.37036133 C-92.0161291 381.82615621 -92.02621262 371.28195017 -92.03511146 360.73773119 C-92.03949819 355.76741233 -92.04486406 350.79709453 -92.05010033 345.8267765 C-92.06711197 329.29521373 -92.08160438 312.7636516 -92.08884907 296.23208141 C-92.09075884 291.94381395 -92.09267919 287.65554649 -92.09463501 283.36727905 C-92.09511875 282.30150064 -92.09560249 281.23572222 -92.09610089 280.13764749 C-92.10439459 262.8870879 -92.12972064 245.63659781 -92.16221569 228.38606855 C-92.19533444 210.65929059 -92.21330225 192.93254789 -92.21649331 175.20573884 C-92.21865413 165.2593758 -92.22733979 155.31311404 -92.25295448 145.36678123 C-92.27472749 136.89279203 -92.28267963 128.41892872 -92.2729877 119.94491472 C-92.26846183 115.62682533 -92.27022851 111.30899533 -92.28974915 106.990942 C-92.42485024 75.32819655 -88.71371207 49.67514789 -66.09634399 25.53695679 C-47.80807906 7.46640929 -25.35772548 -0.06156517 0 0 Z " fill="#E197E5" transform="translate(91.79946899414063,-0.267425537109375)"/>
<path d="M0 0 C10.23 0 20.46 0 31 0 C29.87488422 13.50138941 29.87488422 13.50138941 28.98779297 18.87792969 C28.78996719 20.09083176 28.59214142 21.30373383 28.38832092 22.5533905 C28.17509689 23.82999039 27.96187286 25.10659027 27.7421875 26.421875 C27.5158233 27.79712502 27.2898347 29.17243692 27.06419373 30.54780579 C26.46433636 34.19591381 25.85834607 37.84297695 25.25088882 41.4898262 C24.7448091 44.53282202 24.24245107 47.57642807 23.7399416 50.62001514 C20.88811311 67.88608471 17.96963186 85.13882587 14.90200806 102.36801147 C12.13536267 117.92460777 9.63276248 133.52048546 7.19067383 149.13110352 C3.67278878 171.46099504 -0.20552377 193.70745217 -4 216 C32.96 216 69.92 216 108 216 C105 237 105 237 104 243 C56.48 243 8.96 243 -40 243 C-37.68772527 224.50180215 -37.68772527 224.50180215 -36.12657166 215.34742737 C-35.95507756 214.33800174 -35.95507756 214.33800174 -35.78011894 213.30818367 C-35.66173731 212.61174185 -35.54335567 211.91530003 -35.42138672 211.19775391 C-35.16777134 209.69038249 -34.91445963 208.18295996 -34.66142273 206.67549133 C-34.12048271 203.45667599 -33.57747063 200.23822002 -33.03277206 197.0200386 C-32.16155772 191.87246167 -31.29535113 186.724049 -30.42971802 181.57553101 C-28.89377131 172.44394698 -27.35376348 163.31305147 -25.81280518 154.18231201 C-23.22469916 138.8467278 -20.64072589 123.5104476 -18.06046772 108.17354107 C-17.61764065 105.54175562 -17.17457669 102.91001012 -16.73149872 100.27826691 C-12.84630005 77.19471819 -9.02388268 54.10351807 -5.40158081 30.97695923 C-3.7738992 20.6121086 -1.98808162 10.30242369 0 0 Z " fill="#611CCF" transform="translate(214,124)"/>
<path d="M0 0 C3.96 0 7.92 0 12 0 C10.18736569 11.59474096 8.35509672 23.1862972 6.51245117 34.77630615 C6.17185856 36.91888356 5.83152493 39.06150215 5.49145508 41.2041626 C-1.23464983 83.56797993 -8.29586404 125.87545162 -15.3992424 168.17731857 C-16.00490524 171.78429875 -16.61011025 175.39135558 -17.21519476 178.99843282 C-18.4888339 186.59073975 -19.76444972 194.18271151 -21.04221916 201.77432442 C-21.47535763 204.34885884 -21.90799665 206.92347735 -22.34012032 209.4981823 C-22.93630227 213.04918055 -23.53451305 216.59983098 -24.13330078 220.15039062 C-24.30881249 221.19816461 -24.48432421 222.24593859 -24.66515446 223.32546329 C-24.82730662 224.28431651 -24.98945879 225.24316973 -25.15652466 226.2310791 C-25.29617708 227.06086525 -25.43582951 227.8906514 -25.57971382 228.74558258 C-25.97152441 230.84725679 -26.48148685 232.92594741 -27 235 C17.22 235 61.44 235 107 235 C107 242 107 242 106 247 C57.82 247 9.64 247 -40 247 C-40 238.00015925 -40 238.00015925 -39.26763916 233.73991394 C-39.10513672 232.77506577 -38.94263428 231.81021759 -38.77520752 230.81613159 C-38.59447693 229.78392487 -38.41374634 228.75171814 -38.22753906 227.68823242 C-38.03889282 226.57951279 -37.85024658 225.47079315 -37.65588379 224.32847595 C-37.03188384 220.66973667 -36.39867021 217.01265284 -35.765625 213.35546875 C-35.32614039 210.78610866 -34.88732931 208.21663328 -34.44915771 205.64704895 C-33.41065818 199.56227064 -32.36593686 193.47857995 -31.31851554 187.39533168 C-29.34520667 175.93417344 -27.38216098 164.47126386 -25.42314911 153.00765419 C-24.78586835 149.28618205 -24.14446033 145.56544009 -23.50250244 141.84477234 C-21.31665668 129.12086247 -19.27854104 116.38722159 -17.4179287 103.6116209 C-15.95380438 93.58132939 -14.31780347 83.58626052 -12.6171875 73.59375 C-12.31359315 71.7978479 -12.01022362 70.00190778 -11.70706177 68.20593262 C-11.08190593 64.50566003 -10.45504449 60.8056827 -9.82666016 57.10595703 C-9.02642754 52.39440226 -8.2292363 47.6823394 -7.43313408 42.97008514 C-6.66212317 38.40697563 -5.88975048 33.84409696 -5.1171875 29.28125 C-4.97355648 28.43241745 -4.82992546 27.5835849 -4.68194199 26.70903015 C-3.1727432 17.79608409 -1.64263725 8.88956632 0 0 Z " fill="#FEFDFE" transform="translate(201,132)"/>
<path d="M0 0 C2.5 0.25 2.5 0.25 4.5 2.25 C4.125 5.875 4.125 5.875 3.5 9.25 C4.16 9.58 4.82 9.91 5.5 10.25 C-2.25 9.5 -2.25 9.5 -4.5 7.25 C-4.75 4.75 -4.75 4.75 -4.5 2.25 C-2.5 0.25 -2.5 0.25 0 0 Z " fill="#D690D9" transform="translate(54.5,439.75)"/>
<path d="M0 0 C0.99 0.33 1.98 0.66 3 1 C3 3.97 3 6.94 3 10 C0.36335259 10 -1.50746285 9.74776114 -4 9 C-5 8 -5 8 -5.0625 5.4375 C-5.041875 4.633125 -5.02125 3.82875 -5 3 C-3.35 2.67 -1.7 2.34 0 2 C0 1.34 0 0.68 0 0 Z " fill="#DB93DE" transform="translate(145,440)"/>
<path d="M0 0 C0.66 0 1.32 0 2 0 C2 0.66 2 1.32 2 2 C4.31 2 6.62 2 9 2 C8.01 2.33 7.02 2.66 6 3 C6 3.66 6 4.32 6 5 C6.99 5.33 7.98 5.66 9 6 C8.67 6.99 8.34 7.98 8 9 C5.69 9 3.38 9 1 9 C-1.125 2.25 -1.125 2.25 0 0 Z " fill="#D690DA" transform="translate(324,103)"/>
<path d="M0 0 C0.66 0 1.32 0 2 0 C2 0.66 2 1.32 2 2 C4.31 2 6.62 2 9 2 C8.01 2.33 7.02 2.66 6 3 C6 3.66 6 4.32 6 5 C6.99 5.33 7.98 5.66 9 6 C8.67 6.99 8.34 7.98 8 9 C5.69 9 3.38 9 1 9 C-1.125 2.25 -1.125 2.25 0 0 Z " fill="#D690DA" transform="translate(145,103)"/>
<path d="M0 0 C1.485 0.99 1.485 0.99 3 2 C3.33 1.34 3.66 0.68 4 0 C4.99 0.33 5.98 0.66 7 1 C9.14255793 0.61067144 9.14255793 0.61067144 11 0 C12.125 4.75 12.125 4.75 11 7 C9.68 7 8.36 7 7 7 C6.34 6.01 5.68 5.02 5 4 C4.01 5.485 4.01 5.485 3 7 C2.34 7 1.68 7 1 7 C0.67 4.69 0.34 2.38 0 0 Z " fill="#D992DD" transform="translate(410,17)"/>
<path d="M0 0 C1.67542976 0.28604898 3.34385343 0.61781233 5 1 C5 3.31 5 5.62 5 8 C3.34385343 8.38218767 1.67542976 8.71395102 0 9 C-1 8 -1 8 -1.125 4.5 C-1 1 -1 1 0 0 Z " fill="#D590D8" transform="translate(400,423)"/>
<path d="M0 0 C1.485 0.99 1.485 0.99 3 2 C3.33 1.34 3.66 0.68 4 0 C4.99 0.33 5.98 0.66 7 1 C9.14255793 0.61067144 9.14255793 0.61067144 11 0 C11.33 1.32 11.66 2.64 12 4 C10.68 4 9.36 4 8 4 C8 4.66 8 5.32 8 6 C9.32 6.33 10.64 6.66 12 7 C9.625 7.1875 9.625 7.1875 7 7 C6.34 6.01 5.68 5.02 5 4 C4.01 5.485 4.01 5.485 3 7 C2.34 7 1.68 7 1 7 C0.67 4.69 0.34 2.38 0 0 Z " fill="#D791DA" transform="translate(243,105)"/>
<path d="M0 0 C1.67542976 0.28604898 3.34385343 0.61781233 5 1 C5.125 6.75 5.125 6.75 4 9 C2.35 8.67 0.7 8.34 -1 8 C-1.04241723 5.66705225 -1.04092937 3.33297433 -1 1 C-0.67 0.67 -0.34 0.34 0 0 Z " fill="#DA93DE" transform="translate(87,387)"/>
<path d="M0 0 C1.67542976 0.28604898 3.34385343 0.61781233 5 1 C5.125 6.75 5.125 6.75 4 9 C2.35 8.67 0.7 8.34 -1 8 C-1.04241723 5.66705225 -1.04092937 3.33297433 -1 1 C-0.67 0.67 -0.34 0.34 0 0 Z " fill="#DA93DE" transform="translate(94,369)"/>
<path d="M0 0 C1.2065625 0.0309375 1.2065625 0.0309375 2.4375 0.0625 C2.46439216 1.54156892 2.48384621 3.02077483 2.5 4.5 C2.51160156 5.32371094 2.52320313 6.14742188 2.53515625 6.99609375 C2.4375 9.0625 2.4375 9.0625 1.4375 10.0625 C-0.22867115 10.10313832 -1.89638095 10.105221 -3.5625 10.0625 C-2.2425 9.7325 -0.9225 9.4025 0.4375 9.0625 C0.4375 8.4025 0.4375 7.7425 0.4375 7.0625 C-0.8825 6.7325 -2.2025 6.4025 -3.5625 6.0625 C-3.605221 4.39638095 -3.60313832 2.72867115 -3.5625 1.0625 C-2.5625 0.0625 -2.5625 0.0625 0 0 Z " fill="#D992DC" transform="translate(235.5625,104.9375)"/>
<path d="M0 0 C1.2065625 0.0309375 1.2065625 0.0309375 2.4375 0.0625 C2.46439216 1.54156892 2.48384621 3.02077483 2.5 4.5 C2.51160156 5.32371094 2.52320313 6.14742188 2.53515625 6.99609375 C2.4375 9.0625 2.4375 9.0625 1.4375 10.0625 C-0.22867115 10.10313832 -1.89638095 10.105221 -3.5625 10.0625 C-2.2425 9.7325 -0.9225 9.4025 0.4375 9.0625 C0.4375 8.4025 0.4375 7.7425 0.4375 7.0625 C-0.8825 6.7325 -2.2025 6.4025 -3.5625 6.0625 C-3.605221 4.39638095 -3.60313832 2.72867115 -3.5625 1.0625 C-2.5625 0.0625 -2.5625 0.0625 0 0 Z " fill="#D992DC" transform="translate(213.5625,69.9375)"/>
<path d="M0 0 C1.65 0 3.3 0 5 0 C5 3.3 5 6.6 5 10 C4.34 10 3.68 10 3 10 C2.67 8.35 2.34 6.7 2 5 C1.67 6.65 1.34 8.3 1 10 C0.34 10 -0.32 10 -1 10 C-2.25 3.375 -2.25 3.375 0 0 Z " fill="#D891DC" transform="translate(34,386)"/>
<path d="M0 0 C0.66 0 1.32 0 2 0 C2 3.3 2 6.6 2 10 C0.35 10 -1.3 10 -3 10 C-4 9 -4 9 -4.0625 6.4375 C-4.041875 5.633125 -4.02125 4.82875 -4 4 C-2.68 3.67 -1.36 3.34 0 3 C0 2.01 0 1.02 0 0 Z " fill="#D992DD" transform="translate(79,439)"/>
<path d="M0 0 C0.66 0 1.32 0 2 0 C2 0.99 2 1.98 2 3 C3.32 3.33 4.64 3.66 6 4 C6.042721 5.66611905 6.04063832 7.33382885 6 9 C5.67 9.33 5.34 9.66 5 10 C3.35 10 1.7 10 0 10 C0 6.7 0 3.4 0 0 Z " fill="#D992DD" transform="translate(21,333)"/>
<path d="M0 0 C0.66 0 1.32 0 2 0 C2 0.99 2 1.98 2 3 C3.32 3.33 4.64 3.66 6 4 C6.042721 5.66611905 6.04063832 7.33382885 6 9 C5.67 9.33 5.34 9.66 5 10 C3.35 10 1.7 10 0 10 C0 6.7 0 3.4 0 0 Z " fill="#D992DD" transform="translate(61,173)"/>
<path d="M0 0 C0.66 0 1.32 0 2 0 C2 0.99 2 1.98 2 3 C3.32 3.33 4.64 3.66 6 4 C6.042721 5.66611905 6.04063832 7.33382885 6 9 C5.67 9.33 5.34 9.66 5 10 C3.35 10 1.7 10 0 10 C0 6.7 0 3.4 0 0 Z " fill="#D992DD" transform="translate(61,156)"/>
<path d="M0 0 C1.65 0 3.3 0 5 0 C6 1 6 1 6.0625 3.5625 C6.041875 4.366875 6.02125 5.17125 6 6 C4.68 6.33 3.36 6.66 2 7 C2 7.99 2 8.98 2 10 C1.34 10 0.68 10 0 10 C0 6.7 0 3.4 0 0 Z " fill="#D992DC" transform="translate(458,105)"/>
<path d="M0 0 C0.33 0 0.66 0 1 0 C1 3.3 1 6.6 1 10 C-0.65 10 -2.3 10 -4 10 C-5 9 -5 9 -5.0625 6.4375 C-5.041875 5.633125 -5.02125 4.82875 -5 4 C-3.35 3.67 -1.7 3.34 0 3 C0 2.01 0 1.02 0 0 Z " fill="#D992DC" transform="translate(25,457)"/>
<path d="M0 0 C1.65 0 3.3 0 5 0 C5 3.3 5 6.6 5 10 C4.67 9.01 4.34 8.02 4 7 C2.35 6.67 0.7 6.34 -1 6 C-1.042721 4.33388095 -1.04063832 2.66617115 -1 1 C-0.67 0.67 -0.34 0.34 0 0 Z " fill="#D992DD" transform="translate(194,425)"/>
<path d="M0 0 C1.65 0 3.3 0 5 0 C5 3.3 5 6.6 5 10 C4.67 9.01 4.34 8.02 4 7 C2.35 6.67 0.7 6.34 -1 6 C-1.042721 4.33388095 -1.04063832 2.66617115 -1 1 C-0.67 0.67 -0.34 0.34 0 0 Z " fill="#D992DD" transform="translate(128,425)"/>
<path d="M0 0 C0.33 0 0.66 0 1 0 C1 3.3 1 6.6 1 10 C-0.65 10 -2.3 10 -4 10 C-5 9 -5 9 -5.0625 6.4375 C-5.041875 5.633125 -5.02125 4.82875 -5 4 C-3.35 3.67 -1.7 3.34 0 3 C0 2.01 0 1.02 0 0 Z " fill="#D992DC" transform="translate(154,422)"/>
<path d="M0 0 C0.33 0 0.66 0 1 0 C1 3.3 1 6.6 1 10 C-0.65 10 -2.3 10 -4 10 C-5 9 -5 9 -5.0625 6.4375 C-5.041875 5.633125 -5.02125 4.82875 -5 4 C-3.35 3.67 -1.7 3.34 0 3 C0 2.01 0 1.02 0 0 Z " fill="#D992DC" transform="translate(25,297)"/>
<path d="M0 0 C1.65 0 3.3 0 5 0 C5 3.3 5 6.6 5 10 C4.67 9.01 4.34 8.02 4 7 C2.35 6.67 0.7 6.34 -1 6 C-1.042721 4.33388095 -1.04063832 2.66617115 -1 1 C-0.67 0.67 -0.34 0.34 0 0 Z " fill="#D992DD" transform="translate(163,247)"/>
<path d="M0 0 C1.65 0 3.3 0 5 0 C5 3.3 5 6.6 5 10 C4.34 10 3.68 10 3 10 C3 7.03 3 4.06 3 1 C2.34 1 1.68 1 1 1 C1.33 1.99 1.66 2.98 2 4 C1.72428861 6.00875442 1.39764263 8.01178687 1 10 C0.34 10 -0.32 10 -1 10 C-2.25 3.375 -2.25 3.375 0 0 Z " fill="#D791DA" transform="translate(60,209)"/>
<path d="M0 0 C1.65 0 3.3 0 5 0 C5 3.3 5 6.6 5 10 C4.34 10 3.68 10 3 10 C3 7.03 3 4.06 3 1 C2.34 1 1.68 1 1 1 C1.33 1.99 1.66 2.98 2 4 C1.72428861 6.00875442 1.39764263 8.01178687 1 10 C0.34 10 -0.32 10 -1 10 C-2.25 3.375 -2.25 3.375 0 0 Z " fill="#D791DA" transform="translate(60,191)"/>
<path d="M0 0 C1.65 0 3.3 0 5 0 C5 3.3 5 6.6 5 10 C4.67 9.01 4.34 8.02 4 7 C2.35 6.67 0.7 6.34 -1 6 C-1.042721 4.33388095 -1.04063832 2.66617115 -1 1 C-0.67 0.67 -0.34 0.34 0 0 Z " fill="#D992DC" transform="translate(125,159)"/>
<path d="M0 0 C0.33 0 0.66 0 1 0 C1 3.3 1 6.6 1 10 C-0.65 10 -2.3 10 -4 10 C-5 9 -5 9 -5.0625 6.4375 C-5.041875 5.633125 -5.02125 4.82875 -5 4 C-3.35 3.67 -1.7 3.34 0 3 C0 2.01 0 1.02 0 0 Z " fill="#D992DD" transform="translate(40,120)"/>
<path d="M0 0 C0.33 0 0.66 0 1 0 C1 3.3 1 6.6 1 10 C-0.65 10 -2.3 10 -4 10 C-5 9 -5 9 -5.0625 6.4375 C-5.041875 5.633125 -5.02125 4.82875 -5 4 C-3.35 3.67 -1.7 3.34 0 3 C0 2.01 0 1.02 0 0 Z " fill="#D992DC" transform="translate(414,102)"/>
<path d="M0 0 C1.65 0 3.3 0 5 0 C5 3.3 5 6.6 5 10 C4.34 10 3.68 10 3 10 C3 7.03 3 4.06 3 1 C2.34 1 1.68 1 1 1 C1.33 1.99 1.66 2.98 2 4 C1.72428861 6.00875442 1.39764263 8.01178687 1 10 C0.34 10 -0.32 10 -1 10 C-2.25 3.375 -2.25 3.375 0 0 Z " fill="#D791DA" transform="translate(313,14)"/>
<path d="M0 0 C0.33 0 0.66 0 1 0 C1 3.3 1 6.6 1 10 C-0.65 10 -2.3 10 -4 10 C-5 9 -5 9 -5.0625 6.4375 C-5.041875 5.633125 -5.02125 4.82875 -5 4 C-3.35 3.67 -1.7 3.34 0 3 C0 2.01 0 1.02 0 0 Z " fill="#D992DC" transform="translate(219,14)"/>
<path d="M0 0 C1.65 0 3.3 0 5 0 C6 1 6 1 6.0625 3.5625 C6.041875 4.366875 6.02125 5.17125 6 6 C4.35 6.33 2.7 6.66 1 7 C0.67 7.99 0.34 8.98 0 10 C0 6.7 0 3.4 0 0 Z " fill="#D991DC" transform="translate(6,336)"/>
<path d="M0 0 C1.65 0 3.3 0 5 0 C6 1 6 1 6.0625 3.5625 C6.041875 4.366875 6.02125 5.17125 6 6 C4.35 6.33 2.7 6.66 1 7 C0.67 7.99 0.34 8.98 0 10 C0 6.7 0 3.4 0 0 Z " fill="#D991DC" transform="translate(102,212)"/>
<path d="M0 0 C1.65 0 3.3 0 5 0 C6 1 6 1 6.0625 3.5625 C6.041875 4.366875 6.02125 5.17125 6 6 C4.35 6.33 2.7 6.66 1 7 C0.67 7.99 0.34 8.98 0 10 C0 6.7 0 3.4 0 0 Z " fill="#D991DC" transform="translate(102,194)"/>
<path d="M0 0 C0.99 1.485 0.99 1.485 2 3 C4.05925139 3.72382467 4.05925139 3.72382467 6 4 C6.042721 5.66611905 6.04063832 7.33382885 6 9 C5.67 9.33 5.34 9.66 5 10 C3.35 10 1.7 10 0 10 C0 6.7 0 3.4 0 0 Z " fill="#D991DC" transform="translate(142,31)"/>
<path d="M0 0 C0.33 0.99 0.66 1.98 1 3 C2.65 3.33 4.3 3.66 6 4 C5.67 5.98 5.34 7.96 5 10 C3.35 10 1.7 10 0 10 C0 6.7 0 3.4 0 0 Z " fill="#D992DC" transform="translate(298,14)"/>
<path d="M0 0 C1.485 0.99 1.485 0.99 3 2 C3.33 1.34 3.66 0.68 4 0 C4.99 0.33 5.98 0.66 7 1 C9.14255793 0.61067144 9.14255793 0.61067144 11 0 C11.33 1.32 11.66 2.64 12 4 C10.88625 3.938125 9.7725 3.87625 8.625 3.8125 C6.830625 3.9053125 6.830625 3.9053125 5 4 C4.01 5.485 4.01 5.485 3 7 C2.34 7 1.68 7 1 7 C0.67 4.69 0.34 2.38 0 0 Z " fill="#D791DA" transform="translate(37,442)"/>
<path d="M0 0 C1.67542976 0.28604898 3.34385343 0.61781233 5 1 C5.625 2.875 5.625 2.875 6 5 C5.34 5.66 4.68 6.32 4 7 C1.375 6.625 1.375 6.625 -1 6 C-1.042721 4.33388095 -1.04063832 2.66617115 -1 1 C-0.67 0.67 -0.34 0.34 0 0 Z " fill="#DA93DE" transform="translate(116,283)"/>
<path d="M0 0 C1.67542976 0.28604898 3.34385343 0.61781233 5 1 C5.625 2.875 5.625 2.875 6 5 C5.34 5.66 4.68 6.32 4 7 C1.375 6.625 1.375 6.625 -1 6 C-1.042721 4.33388095 -1.04063832 2.66617115 -1 1 C-0.67 0.67 -0.34 0.34 0 0 Z " fill="#DA93DE" transform="translate(116,265)"/>
<path d="M0 0 C1.67542976 0.28604898 3.34385343 0.61781233 5 1 C5 2.65 5 4.3 5 6 C2.625 6.625 2.625 6.625 0 7 C-0.66 6.34 -1.32 5.68 -2 5 C-1.46428571 1.46428571 -1.46428571 1.46428571 0 0 Z " fill="#DA93DD" transform="translate(118,247)"/>
<path d="M0 0 C1.67542976 0.28604898 3.34385343 0.61781233 5 1 C5.625 2.875 5.625 2.875 6 5 C5.34 5.66 4.68 6.32 4 7 C1.375 6.625 1.375 6.625 -1 6 C-1.042721 4.33388095 -1.04063832 2.66617115 -1 1 C-0.67 0.67 -0.34 0.34 0 0 Z " fill="#DA93DE" transform="translate(67,212)"/>
<path d="M0 0 C1.67542976 0.28604898 3.34385343 0.61781233 5 1 C5.625 2.875 5.625 2.875 6 5 C5.34 5.66 4.68 6.32 4 7 C1.375 6.625 1.375 6.625 -1 6 C-1.042721 4.33388095 -1.04063832 2.66617115 -1 1 C-0.67 0.67 -0.34 0.34 0 0 Z " fill="#DA93DE" transform="translate(67,194)"/>
<path d="M0 0 C0.33 0 0.66 0 1 0 C1 3.3 1 6.6 1 10 C-0.65 10 -2.3 10 -4 10 C-4.625 7.625 -4.625 7.625 -5 5 C-4.34 4.34 -3.68 3.68 -3 3 C-2.01 3 -1.02 3 0 3 C0 2.01 0 1.02 0 0 Z " fill="#D992DD" transform="translate(150,156)"/>
<path d="M0 0 C1.67542976 0.28604898 3.34385343 0.61781233 5 1 C5 2.65 5 4.3 5 6 C2.625 6.625 2.625 6.625 0 7 C-0.66 6.34 -1.32 5.68 -2 5 C-1.46428571 1.46428571 -1.46428571 1.46428571 0 0 Z " fill="#DA93DD" transform="translate(357,105)"/>
<path d="M0 0 C1.67542976 0.28604898 3.34385343 0.61781233 5 1 C5 2.65 5 4.3 5 6 C2.625 6.625 2.625 6.625 0 7 C-0.66 6.34 -1.32 5.68 -2 5 C-1.46428571 1.46428571 -1.46428571 1.46428571 0 0 Z " fill="#DA93DD" transform="translate(53,105)"/>
<path d="M0 0 C0.33 0 0.66 0 1 0 C1 3.3 1 6.6 1 10 C-0.65 10 -2.3 10 -4 10 C-4.625 7.625 -4.625 7.625 -5 5 C-4.34 4.34 -3.68 3.68 -3 3 C-2.01 3 -1.02 3 0 3 C0 2.01 0 1.02 0 0 Z " fill="#D992DD" transform="translate(112,67)"/>
<path d="M0 0 C1.67542976 0.28604898 3.34385343 0.61781233 5 1 C5.625 2.875 5.625 2.875 6 5 C5.34 5.66 4.68 6.32 4 7 C1.375 6.625 1.375 6.625 -1 6 C-1.042721 4.33388095 -1.04063832 2.66617115 -1 1 C-0.67 0.67 -0.34 0.34 0 0 Z " fill="#DA93DE" transform="translate(303,70)"/>
<path d="M0 0 C0.33 0 0.66 0 1 0 C1 3.3 1 6.6 1 10 C-0.65 10 -2.3 10 -4 10 C-4.625 7.625 -4.625 7.625 -5 5 C-4.34 4.34 -3.68 3.68 -3 3 C-2.01 3 -1.02 3 0 3 C0 2.01 0 1.02 0 0 Z " fill="#D992DD" transform="translate(25,31)"/>
<path d="M0 0 C0.33 0 0.66 0 1 0 C1 3.3 1 6.6 1 10 C-0.65 10 -2.3 10 -4 10 C-4.625 7.625 -4.625 7.625 -5 5 C-4.34 4.34 -3.68 3.68 -3 3 C-2.01 3 -1.02 3 0 3 C0 2.01 0 1.02 0 0 Z " fill="#D992DD" transform="translate(432,14)"/>
<path d="M0 0 C1.67542976 0.28604898 3.34385343 0.61781233 5 1 C5 2.65 5 4.3 5 6 C3.34385343 6.38218767 1.67542976 6.71395102 0 7 C-1 6 -1 6 -1.125 3.5 C-1 1 -1 1 0 0 Z " fill="#DA93DD" transform="translate(27,442)"/>
<path d="M0 0 C1.67542976 0.28604898 3.34385343 0.61781233 5 1 C5 2.65 5 4.3 5 6 C3.34385343 6.38218767 1.67542976 6.71395102 0 7 C-1 6 -1 6 -1.125 3.5 C-1 1 -1 1 0 0 Z " fill="#DA93DD" transform="translate(43,371)"/>
<path d="M0 0 C1.67542976 0.28604898 3.34385343 0.61781233 5 1 C5 2.65 5 4.3 5 6 C3.34385343 6.38218767 1.67542976 6.71395102 0 7 C-1 6 -1 6 -1.125 3.5 C-1 1 -1 1 0 0 Z " fill="#DA93DD" transform="translate(42,354)"/>
<path d="M0 0 C1.67542976 0.28604898 3.34385343 0.61781233 5 1 C5 2.65 5 4.3 5 6 C3.34385343 6.38218767 1.67542976 6.71395102 0 7 C-1 6 -1 6 -1.125 3.5 C-1 1 -1 1 0 0 Z " fill="#DA93DD" transform="translate(124,283)"/>
<path d="M0 0 C1.67542976 0.28604898 3.34385343 0.61781233 5 1 C5 2.65 5 4.3 5 6 C3.34385343 6.38218767 1.67542976 6.71395102 0 7 C-1 6 -1 6 -1.125 3.5 C-1 1 -1 1 0 0 Z " fill="#DA93DD" transform="translate(66,283)"/>
<path d="M0 0 C1.67542976 0.28604898 3.34385343 0.61781233 5 1 C5 2.65 5 4.3 5 6 C3.34385343 6.38218767 1.67542976 6.71395102 0 7 C-1 6 -1 6 -1.125 3.5 C-1 1 -1 1 0 0 Z " fill="#DA93DD" transform="translate(124,265)"/>
<path d="M0 0 C1.67542976 0.28604898 3.34385343 0.61781233 5 1 C5 2.65 5 4.3 5 6 C3.34385343 6.38218767 1.67542976 6.71395102 0 7 C-1 6 -1 6 -1.125 3.5 C-1 1 -1 1 0 0 Z " fill="#DA93DD" transform="translate(66,265)"/>
<path d="M0 0 C1.67542976 0.28604898 3.34385343 0.61781233 5 1 C5 2.65 5 4.3 5 6 C3.34385343 6.38218767 1.67542976 6.71395102 0 7 C-1 6 -1 6 -1.125 3.5 C-1 1 -1 1 0 0 Z " fill="#DA93DD" transform="translate(96,247)"/>
<path d="M0 0 C1.67542976 0.28604898 3.34385343 0.61781233 5 1 C5 2.65 5 4.3 5 6 C3.34385343 6.38218767 1.67542976 6.71395102 0 7 C-1 6 -1 6 -1.125 3.5 C-1 1 -1 1 0 0 Z " fill="#DA93DD" transform="translate(88,247)"/>
<path d="M0 0 C1.67542976 0.28604898 3.34385343 0.61781233 5 1 C5 2.65 5 4.3 5 6 C3.34385343 6.38218767 1.67542976 6.71395102 0 7 C-1 6 -1 6 -1.125 3.5 C-1 1 -1 1 0 0 Z " fill="#DA93DD" transform="translate(26,212)"/>
<path d="M0 0 C1.67542976 0.28604898 3.34385343 0.61781233 5 1 C5 2.65 5 4.3 5 6 C3.34385343 6.38218767 1.67542976 6.71395102 0 7 C-1 6 -1 6 -1.125 3.5 C-1 1 -1 1 0 0 Z " fill="#DA93DD" transform="translate(26,194)"/>
<path d="M0 0 C0.66 0 1.32 0 2 0 C2 0.66 2 1.32 2 2 C2.66 2.33 3.32 2.66 4 3 C3.34 3 2.68 3 2 3 C2.33 4.98 2.66 6.96 3 9 C2.01 8.67 1.02 8.34 0 8 C0 6.35 0 4.7 0 3 C-0.99 3.495 -0.99 3.495 -2 4 C-2.65555119 6.52733235 -2.65555119 6.52733235 -3 9 C-3.66 9 -4.32 9 -5 9 C-5 6.69 -5 4.38 -5 2 C-3.35 2 -1.7 2 0 2 C0 1.34 0 0.68 0 0 Z " fill="#D791DA" transform="translate(133,174)"/>
<path d="M0 0 C1.67542976 0.28604898 3.34385343 0.61781233 5 1 C5 2.65 5 4.3 5 6 C3.34385343 6.38218767 1.67542976 6.71395102 0 7 C-1 6 -1 6 -1.125 3.5 C-1 1 -1 1 0 0 Z " fill="#DA93DD" transform="translate(493,105)"/>
<path d="M0 0 C1.67542976 0.28604898 3.34385343 0.61781233 5 1 C5 2.65 5 4.3 5 6 C3.34385343 6.38218767 1.67542976 6.71395102 0 7 C-1 6 -1 6 -1.125 3.5 C-1 1 -1 1 0 0 Z " fill="#DA93DD" transform="translate(89,105)"/>
<path d="M0 0 C1.67542976 0.28604898 3.34385343 0.61781233 5 1 C5 2.65 5 4.3 5 6 C3.34385343 6.38218767 1.67542976 6.71395102 0 7 C-1 6 -1 6 -1.125 3.5 C-1 1 -1 1 0 0 Z " fill="#DA93DD" transform="translate(194,105)"/>
<path d="M0 0 C1.67542976 0.28604898 3.34385343 0.61781233 5 1 C5 2.65 5 4.3 5 6 C3.34385343 6.38218767 1.67542976 6.71395102 0 7 C-1 6 -1 6 -1.125 3.5 C-1 1 -1 1 0 0 Z " fill="#DA93DD" transform="translate(138,105)"/>
<path d="M0 0 C1.67542976 0.28604898 3.34385343 0.61781233 5 1 C5 2.65 5 4.3 5 6 C3.34385343 6.38218767 1.67542976 6.71395102 0 7 C-1 6 -1 6 -1.125 3.5 C-1 1 -1 1 0 0 Z " fill="#DA93DD" transform="translate(262,70)"/>
<path d="M0 0 C1.67542976 0.28604898 3.34385343 0.61781233 5 1 C5 2.65 5 4.3 5 6 C3.34385343 6.38218767 1.67542976 6.71395102 0 7 C-1 6 -1 6 -1.125 3.5 C-1 1 -1 1 0 0 Z " fill="#DA93DD" transform="translate(311,70)"/>
<path d="M0 0 C1.67542976 0.28604898 3.34385343 0.61781233 5 1 C5 2.65 5 4.3 5 6 C3.34385343 6.38218767 1.67542976 6.71395102 0 7 C-1 6 -1 6 -1.125 3.5 C-1 1 -1 1 0 0 Z " fill="#DA93DD" transform="translate(107,34)"/>
<path d="M0 0 C1.67542976 0.28604898 3.34385343 0.61781233 5 1 C5 2.65 5 4.3 5 6 C3.34385343 6.38218767 1.67542976 6.71395102 0 7 C-1 6 -1 6 -1.125 3.5 C-1 1 -1 1 0 0 Z " fill="#DA93DD" transform="translate(273,17)"/>
<path d="M0 0 C1.67542976 0.28604898 3.34385343 0.61781233 5 1 C5 2.65 5 4.3 5 6 C3.34385343 6.38218767 1.67542976 6.71395102 0 7 C-1 6 -1 6 -1.125 3.5 C-1 1 -1 1 0 0 Z " fill="#DA93DD" transform="translate(366,17)"/>
<path d="M0 0 C1.67542976 0.28604898 3.34385343 0.61781233 5 1 C5 2.65 5 4.3 5 6 C3.34385343 6.38218767 1.67542976 6.71395102 0 7 C-1 6 -1 6 -1.125 3.5 C-1 1 -1 1 0 0 Z " fill="#DA93DD" transform="translate(166,17)"/>
<path d="M0 0 C0.66 0.33 1.32 0.66 2 1 C1.67 1.33 1.34 1.66 1 2 C1.66 2.33 2.32 2.66 3 3 C3.33 2.01 3.66 1.02 4 0 C4.66 0.33 5.32 0.66 6 1 C5.67 3.97 5.34 6.94 5 10 C4.34 10 3.68 10 3 10 C3 8.02 3 6.04 3 4 C2.01 4 1.02 4 0 4 C0 5.98 0 7.96 0 10 C-0.33 10 -0.66 10 -1 10 C-2.25 3.375 -2.25 3.375 0 0 Z " fill="#D590D8" transform="translate(290,102)"/>
<path d="M0 0 C0.66 0 1.32 0 2 0 C3.06546953 3.1964086 3.07427838 5.65747276 3 9 C2.01 8.67 1.02 8.34 0 8 C0 6.35 0 4.7 0 3 C-0.99 3 -1.98 3 -3 3 C-3 4.98 -3 6.96 -3 9 C-3.66 9 -4.32 9 -5 9 C-5 6.69 -5 4.38 -5 2 C-3.35 2 -1.7 2 0 2 C0 1.34 0 0.68 0 0 Z " fill="#D690DA" transform="translate(137,157)"/>
<path d="M0 0 C1.32 0 2.64 0 4 0 C4 2.97 4 5.94 4 9 C2.68 9 1.36 9 0 9 C0 6.03 0 3.06 0 0 Z " fill="#DA93DE" transform="translate(508,103)"/>
<path d="M0 0 C0.66 0 1.32 0 2 0 C3.125 6.75 3.125 6.75 2 9 C1.34 9 0.68 9 0 9 C0 8.34 0 7.68 0 7 C-1.32 7 -2.64 7 -4 7 C-2.79618552 4.50638429 -1.54571278 2.31856917 0 0 Z " fill="#D791DB" transform="translate(189,32)"/>
<path d="M0 0 C0.33 0.66 0.66 1.32 1 2 C1.66 2.33 2.32 2.66 3 3 C2.34 3 1.68 3 1 3 C1 4.65 1 6.3 1 8 C1.66 8.33 2.32 8.66 3 9 C2.01 9 1.02 9 0 9 C0 7.02 0 5.04 0 3 C-1.65 3 -3.3 3 -5 3 C-5 3.66 -5 4.32 -5 5 C-4.01 5.33 -3.02 5.66 -2 6 C-2.33 6.99 -2.66 7.98 -3 9 C-4.32 8.67 -5.64 8.34 -7 8 C-6.01 8 -5.02 8 -4 8 C-4 7.34 -4 6.68 -4 6 C-4.99 5.67 -5.98 5.34 -7 5 C-6.67 4.01 -6.34 3.02 -6 2 C-4.02 2 -2.04 2 0 2 C0 1.34 0 0.68 0 0 Z " fill="#D590D9" transform="translate(80,15)"/>
<path d="M0 0 C0.66 0 1.32 0 2 0 C2.33 1.32 2.66 2.64 3 4 C3.99 4 4.98 4 6 4 C5.01 5.485 5.01 5.485 4 7 C4.99 8.485 4.99 8.485 6 10 C4 10 2 10 0 10 C0 6.7 0 3.4 0 0 Z " fill="#D690DA" transform="translate(63,67)"/>
<path d="M0 0 C2.125 0.375 2.125 0.375 4 1 C4 2.65 4 4.3 4 6 C2.35 6.33 0.7 6.66 -1 7 C-1.625 4.625 -1.625 4.625 -2 2 C-1.34 1.34 -0.68 0.68 0 0 Z " fill="#DB93DE" transform="translate(131,105)"/>
<path d="M0 0 C2.125 0.375 2.125 0.375 4 1 C4 2.65 4 4.3 4 6 C2.35 6.33 0.7 6.66 -1 7 C-1.625 4.625 -1.625 4.625 -2 2 C-1.34 1.34 -0.68 0.68 0 0 Z " fill="#DB93DE" transform="translate(321,17)"/>
<path d="M0 0 C2.0625 0.4375 2.0625 0.4375 4 1 C4 2.65 4 4.3 4 6 C2.0625 6.5625 2.0625 6.5625 0 7 C-1 6 -1 6 -1.125 3.5 C-1 1 -1 1 0 0 Z " fill="#E298E6" transform="translate(53,441)"/>
<path d="M0 0 C1.65 0.33 3.3 0.66 5 1 C5 2.98 5 4.96 5 7 C3.35 7 1.7 7 0 7 C-0.33 6.01 -0.66 5.02 -1 4 C0.32 3.67 1.64 3.34 3 3 C3 2.34 3 1.68 3 1 C2.01 1.33 1.02 1.66 0 2 C0 1.34 0 0.68 0 0 Z " fill="#D791DA" transform="translate(253,425)"/>
<path d="M0 0 C1.65 0.33 3.3 0.66 5 1 C5 2.98 5 4.96 5 7 C3.35 7 1.7 7 0 7 C-0.33 6.01 -0.66 5.02 -1 4 C0.32 3.67 1.64 3.34 3 3 C3 2.34 3 1.68 3 1 C2.01 1.33 1.02 1.66 0 2 C0 1.34 0 0.68 0 0 Z " fill="#D791DA" transform="translate(143,336)"/>
<path d="M0 0 C1.65 0.33 3.3 0.66 5 1 C5 2.98 5 4.96 5 7 C3.35 7 1.7 7 0 7 C-0.33 6.01 -0.66 5.02 -1 4 C0.32 3.67 1.64 3.34 3 3 C3 2.34 3 1.68 3 1 C2.01 1.33 1.02 1.66 0 2 C0 1.34 0 0.68 0 0 Z " fill="#D791DA" transform="translate(95,336)"/>
<path d="M0 0 C1.65 0 3.3 0 5 0 C5 3.3 5 6.6 5 10 C4.34 10 3.68 10 3 10 C3 9.01 3 8.02 3 7 C1.68 7 0.36 7 -1 7 C-0.67 6.34 -0.34 5.68 0 5 C0.99 5.33 1.98 5.66 3 6 C3 4.35 3 2.7 3 1 C1.68 1.33 0.36 1.66 -1 2 C-0.67 1.34 -0.34 0.68 0 0 Z " fill="#D790DA" transform="translate(122,176)"/>
<path d="M0 0 C1.66611905 -0.042721 3.33382885 -0.04063832 5 0 C6 1 6 1 6.0625 4.0625 C6.041875 5.031875 6.02125 6.00125 6 7 C5.34 7 4.68 7 4 7 C3.67 5.35 3.34 3.7 3 2 C2.67 3.65 2.34 5.3 2 7 C1.34 7 0.68 7 0 7 C0 4.69 0 2.38 0 0 Z " fill="#D791DA" transform="translate(172,176)"/>
<path d="M0 0 C0.66 0 1.32 0 2 0 C2 3.3 2 6.6 2 10 C0.02 10 -1.96 10 -4 10 C-3.67 9.34 -3.34 8.68 -3 8 C-2.01 8.33 -1.02 8.66 0 9 C0 7.35 0 5.7 0 4 C-1.32 4.33 -2.64 4.66 -4 5 C-3.67 4.34 -3.34 3.68 -3 3 C-2.01 3 -1.02 3 0 3 C0 2.01 0 1.02 0 0 Z " fill="#D790DA" transform="translate(146,173)"/>
<path d="M0 0 C1.66611905 -0.042721 3.33382885 -0.04063832 5 0 C6 1 6 1 6.0625 4.0625 C6.041875 5.031875 6.02125 6.00125 6 7 C5.34 7 4.68 7 4 7 C3.67 5.35 3.34 3.7 3 2 C2.67 3.65 2.34 5.3 2 7 C1.34 7 0.68 7 0 7 C0 4.69 0 2.38 0 0 Z " fill="#D791DA" transform="translate(85,159)"/>
<path d="M0 0 C0.66 0 1.32 0 2 0 C2 3.3 2 6.6 2 10 C0.02 10 -1.96 10 -4 10 C-3.67 9.34 -3.34 8.68 -3 8 C-2.01 8.33 -1.02 8.66 0 9 C0 7.35 0 5.7 0 4 C-1.32 4.33 -2.64 4.66 -4 5 C-3.67 4.34 -3.34 3.68 -3 3 C-2.01 3 -1.02 3 0 3 C0 2.01 0 1.02 0 0 Z " fill="#D790DA" transform="translate(40,85)"/>
<path d="M0 0 C1.65 0.33 3.3 0.66 5 1 C5 2.98 5 4.96 5 7 C3.35 7 1.7 7 0 7 C-0.33 6.01 -0.66 5.02 -1 4 C0.32 3.67 1.64 3.34 3 3 C3 2.34 3 1.68 3 1 C2.01 1.33 1.02 1.66 0 2 C0 1.34 0 0.68 0 0 Z " fill="#D791DA" transform="translate(218,70)"/>
<path d="M0 0 C1.65 0.33 3.3 0.66 5 1 C5 2.98 5 4.96 5 7 C3.35 7 1.7 7 0 7 C-0.33 6.01 -0.66 5.02 -1 4 C0.32 3.67 1.64 3.34 3 3 C3 2.34 3 1.68 3 1 C2.01 1.33 1.02 1.66 0 2 C0 1.34 0 0.68 0 0 Z " fill="#D791DA" transform="translate(280,17)"/>
<path d="M0 0 C1.98 0.495 1.98 0.495 4 1 C4 2.98 4 4.96 4 7 C2.35 7 0.7 7 -1 7 C-0.67 4.69 -0.34 2.38 0 0 Z " fill="#D891DB" transform="translate(113,442)"/>
<path d="M0 0 C1.98 0.495 1.98 0.495 4 1 C4 2.98 4 4.96 4 7 C2.35 7 0.7 7 -1 7 C-0.67 4.69 -0.34 2.38 0 0 Z " fill="#D891DB" transform="translate(69,442)"/>
<path d="M0 0 C0.66 0 1.32 0 2 0 C2 0.99 2 1.98 2 3 C3.32 3 4.64 3 6 3 C5.67 3.66 5.34 4.32 5 5 C4.34 5 3.68 5 3 5 C2.67 6.32 2.34 7.64 2 9 C2.99 9.33 3.98 9.66 5 10 C3.35 10 1.7 10 0 10 C0 6.7 0 3.4 0 0 Z " fill="#D690D9" transform="translate(125,439)"/>
<path d="M0 0 C1.98 0 3.96 0 6 0 C5.67 0.66 5.34 1.32 5 2 C4.34 2 3.68 2 3 2 C2.67 3.32 2.34 4.64 2 6 C2.99 6.33 3.98 6.66 5 7 C4.01 7 3.02 7 2 7 C2 7.99 2 8.98 2 10 C1.34 10 0.68 10 0 10 C0 6.7 0 3.4 0 0 Z " fill="#D690D9" transform="translate(20,425)"/>
<path d="M0 0 C1.67542976 0.28604898 3.34385343 0.61781233 5 1 C5 1.99 5 2.98 5 4 C3.68 4.33 2.36 4.66 1 5 C1.99 5.66 2.98 6.32 4 7 C2.35 6.67 0.7 6.34 -1 6 C-1.042721 4.33388095 -1.04063832 2.66617115 -1 1 C-0.67 0.67 -0.34 0.34 0 0 Z " fill="#D791DA" transform="translate(117,425)"/>
<path d="M0 0 C0.66 0 1.32 0 2 0 C2 0.99 2 1.98 2 3 C3.32 3 4.64 3 6 3 C5.67 3.66 5.34 4.32 5 5 C4.34 5 3.68 5 3 5 C2.67 6.32 2.34 7.64 2 9 C2.99 9.33 3.98 9.66 5 10 C3.35 10 1.7 10 0 10 C0 6.7 0 3.4 0 0 Z " fill="#D690D9" transform="translate(318,422)"/>
<path d="M0 0 C1.98 0.495 1.98 0.495 4 1 C4 2.98 4 4.96 4 7 C2.35 7 0.7 7 -1 7 C-0.67 4.69 -0.34 2.38 0 0 Z " fill="#D891DB" transform="translate(51,371)"/>
<path d="M0 0 C0.66 0 1.32 0 2 0 C2 0.99 2 1.98 2 3 C3.32 3 4.64 3 6 3 C5.67 3.66 5.34 4.32 5 5 C4.34 5 3.68 5 3 5 C2.67 6.32 2.34 7.64 2 9 C2.99 9.33 3.98 9.66 5 10 C3.35 10 1.7 10 0 10 C0 6.7 0 3.4 0 0 Z " fill="#D690D9" transform="translate(20,368)"/>
<path d="M0 0 C1.98 0 3.96 0 6 0 C5.67 0.66 5.34 1.32 5 2 C4.34 2 3.68 2 3 2 C2.67 3.32 2.34 4.64 2 6 C2.99 6.33 3.98 6.66 5 7 C4.01 7 3.02 7 2 7 C2 7.99 2 8.98 2 10 C1.34 10 0.68 10 0 10 C0 6.7 0 3.4 0 0 Z " fill="#D690D9" transform="translate(20,283)"/>
<path d="M0 0 C1.98 0 3.96 0 6 0 C5.67 0.66 5.34 1.32 5 2 C4.34 2 3.68 2 3 2 C2.67 3.32 2.34 4.64 2 6 C2.99 6.33 3.98 6.66 5 7 C4.01 7 3.02 7 2 7 C2 7.99 2 8.98 2 10 C1.34 10 0.68 10 0 10 C0 6.7 0 3.4 0 0 Z " fill="#D690D9" transform="translate(20,265)"/>
<path d="M0 0 C2.125 0.375 2.125 0.375 4 1 C4 1.99 4 2.98 4 4 C2.68 4 1.36 4 0 4 C0 4.66 0 5.32 0 6 C1.32 6.33 2.64 6.66 4 7 C2.35 7 0.7 7 -1 7 C-1.625 4.625 -1.625 4.625 -2 2 C-1.34 1.34 -0.68 0.68 0 0 Z " fill="#D791DA" transform="translate(146,247)"/>
<path d="M0 0 C1.98 0 3.96 0 6 0 C5.67 0.66 5.34 1.32 5 2 C4.34 2 3.68 2 3 2 C2.67 3.32 2.34 4.64 2 6 C2.99 6.33 3.98 6.66 5 7 C4.01 7 3.02 7 2 7 C2 7.99 2 8.98 2 10 C1.34 10 0.68 10 0 10 C0 6.7 0 3.4 0 0 Z " fill="#D690D9" transform="translate(20,247)"/>
<path d="M0 0 C1.98 0.495 1.98 0.495 4 1 C4 2.98 4 4.96 4 7 C2.35 7 0.7 7 -1 7 C-0.67 4.69 -0.34 2.38 0 0 Z " fill="#D891DB" transform="translate(75,212)"/>
<path d="M0 0 C1.98 0.495 1.98 0.495 4 1 C4 2.98 4 4.96 4 7 C2.35 7 0.7 7 -1 7 C-0.67 4.69 -0.34 2.38 0 0 Z " fill="#D891DB" transform="translate(75,194)"/>
<path d="M0 0 C1.98 0.495 1.98 0.495 4 1 C4 2.98 4 4.96 4 7 C2.35 7 0.7 7 -1 7 C-0.67 4.69 -0.34 2.38 0 0 Z " fill="#D891DB" transform="translate(94,176)"/>
<path d="M0 0 C1.98 0 3.96 0 6 0 C5.67 0.66 5.34 1.32 5 2 C4.34 2 3.68 2 3 2 C2.67 3.32 2.34 4.64 2 6 C2.99 6.33 3.98 6.66 5 7 C4.01 7 3.02 7 2 7 C2 7.99 2 8.98 2 10 C1.34 10 0.68 10 0 10 C0 6.7 0 3.4 0 0 Z " fill="#D690D9" transform="translate(20,176)"/>
<path d="M0 0 C1.98 0 3.96 0 6 0 C5.67 0.66 5.34 1.32 5 2 C4.34 2 3.68 2 3 2 C2.67 3.32 2.34 4.64 2 6 C2.99 6.33 3.98 6.66 5 7 C4.01 7 3.02 7 2 7 C2 7.99 2 8.98 2 10 C1.34 10 0.68 10 0 10 C0 6.7 0 3.4 0 0 Z " fill="#D690D9" transform="translate(20,159)"/>
<path d="M0 0 C2.125 0.375 2.125 0.375 4 1 C4 1.99 4 2.98 4 4 C2.68 4 1.36 4 0 4 C0 4.66 0 5.32 0 6 C1.32 6.33 2.64 6.66 4 7 C2.35 7 0.7 7 -1 7 C-1.625 4.625 -1.625 4.625 -2 2 C-1.34 1.34 -0.68 0.68 0 0 Z " fill="#D791DA" transform="translate(22,123)"/>
<path d="M0 0 C1.98 0.495 1.98 0.495 4 1 C4 2.98 4 4.96 4 7 C2.35 7 0.7 7 -1 7 C-0.67 4.69 -0.34 2.38 0 0 Z " fill="#D891DB" transform="translate(397,105)"/>
<path d="M0 0 C1.98 0.495 1.98 0.495 4 1 C4 2.98 4 4.96 4 7 C2.35 7 0.7 7 -1 7 C-0.67 4.69 -0.34 2.38 0 0 Z " fill="#D891DB" transform="translate(112,105)"/>
<path d="M0 0 C1.98 0.495 1.98 0.495 4 1 C4 2.98 4 4.96 4 7 C2.35 7 0.7 7 -1 7 C-0.67 4.69 -0.34 2.38 0 0 Z " fill="#D891DB" transform="translate(430,105)"/>
<path d="M0 0 C1.67542976 0.28604898 3.34385343 0.61781233 5 1 C5 1.99 5 2.98 5 4 C3.68 4.33 2.36 4.66 1 5 C1.99 5.66 2.98 6.32 4 7 C2.35 6.67 0.7 6.34 -1 6 C-1.042721 4.33388095 -1.04063832 2.66617115 -1 1 C-0.67 0.67 -0.34 0.34 0 0 Z " fill="#D791DA" transform="translate(222,105)"/>
<path d="M0 0 C1.98 0.495 1.98 0.495 4 1 C4 2.98 4 4.96 4 7 C2.35 7 0.7 7 -1 7 C-0.67 4.69 -0.34 2.38 0 0 Z " fill="#D891DB" transform="translate(285,70)"/>
<path d="M0 0 C1.67542976 0.28604898 3.34385343 0.61781233 5 1 C5 1.99 5 2.98 5 4 C3.68 4.33 2.36 4.66 1 5 C1.99 5.66 2.98 6.32 4 7 C2.35 6.67 0.7 6.34 -1 6 C-1.042721 4.33388095 -1.04063832 2.66617115 -1 1 C-0.67 0.67 -0.34 0.34 0 0 Z " fill="#D791DA" transform="translate(51,70)"/>
<path d="M0 0 C1.98 0.495 1.98 0.495 4 1 C4 2.98 4 4.96 4 7 C2.35 7 0.7 7 -1 7 C-0.67 4.69 -0.34 2.38 0 0 Z " fill="#D891DB" transform="translate(115,34)"/>
<path d="M0 0 C1.98 0.495 1.98 0.495 4 1 C4 2.98 4 4.96 4 7 C2.35 7 0.7 7 -1 7 C-0.67 4.69 -0.34 2.38 0 0 Z " fill="#D891DB" transform="translate(124,17)"/>
<path d="M0 0 C1.98 0.495 1.98 0.495 4 1 C4 2.98 4 4.96 4 7 C2.35 7 0.7 7 -1 7 C-0.67 4.69 -0.34 2.38 0 0 Z " fill="#D891DB" transform="translate(328,17)"/>
<path d="M0 0 C1.98 0.495 1.98 0.495 4 1 C4 2.98 4 4.96 4 7 C2.35 7 0.7 7 -1 7 C-0.67 4.69 -0.34 2.38 0 0 Z " fill="#D891DB" transform="translate(252,17)"/>
<path d="M0 0 C1.98 0.495 1.98 0.495 4 1 C4 2.98 4 4.96 4 7 C2.35 7 0.7 7 -1 7 C-0.67 4.69 -0.34 2.38 0 0 Z " fill="#D891DB" transform="translate(208,17)"/>
<path d="M0 0 C2.475 0.495 2.475 0.495 5 1 C5 2.98 5 4.96 5 7 C3.35 7 1.7 7 0 7 C0.33 5.68 0.66 4.36 1 3 C1.66 3 2.32 3 3 3 C3 2.34 3 1.68 3 1 C2.01 1.33 1.02 1.66 0 2 C0 1.34 0 0.68 0 0 Z " fill="#D790DA" transform="translate(49,354)"/>
<path d="M0 0 C2.475 0.495 2.475 0.495 5 1 C5 2.98 5 4.96 5 7 C3.35 7 1.7 7 0 7 C0.33 5.68 0.66 4.36 1 3 C1.66 3 2.32 3 3 3 C3 2.34 3 1.68 3 1 C2.01 1.33 1.02 1.66 0 2 C0 1.34 0 0.68 0 0 Z " fill="#D790DA" transform="translate(97,159)"/>
<path d="M0 0 C2.475 0.495 2.475 0.495 5 1 C5 2.98 5 4.96 5 7 C3.35 7 1.7 7 0 7 C0.33 5.68 0.66 4.36 1 3 C1.66 3 2.32 3 3 3 C3 2.34 3 1.68 3 1 C2.01 1.33 1.02 1.66 0 2 C0 1.34 0 0.68 0 0 Z " fill="#D790DA" transform="translate(206,34)"/>
<path d="M0 0 C2.475 0.495 2.475 0.495 5 1 C5 2.98 5 4.96 5 7 C3.35 7 1.7 7 0 7 C0.33 5.68 0.66 4.36 1 3 C1.66 3 2.32 3 3 3 C3 2.34 3 1.68 3 1 C2.01 1.33 1.02 1.66 0 2 C0 1.34 0 0.68 0 0 Z " fill="#D790DA" transform="translate(373,17)"/>
<path d="M0 0 C1.65 0 3.3 0 5 0 C5 2.64 5 5.28 5 8 C4.01 8.495 4.01 8.495 3 9 C3 8.34 3 7.68 3 7 C1.68 7 0.36 7 -1 7 C-0.67 6.34 -0.34 5.68 0 5 C0.99 5.33 1.98 5.66 3 6 C3 4.35 3 2.7 3 1 C1.68 1.33 0.36 1.66 -1 2 C-0.67 1.34 -0.34 0.68 0 0 Z " fill="#D690D9" transform="translate(94,425)"/>
<path d="M0 0 C1.98 0 3.96 0 6 0 C6 2.31 6 4.62 6 7 C5.67 7 5.34 7 5 7 C4.67 5.35 4.34 3.7 4 2 C3.67 2 3.34 2 3 2 C2.67 3.65 2.34 5.3 2 7 C1.34 7 0.68 7 0 7 C0 4.69 0 2.38 0 0 Z " fill="#D690D9" transform="translate(27,123)"/>
<path d="M0 0 C1.98 0 3.96 0 6 0 C6 2.31 6 4.62 6 7 C5.67 7 5.34 7 5 7 C4.67 5.35 4.34 3.7 4 2 C3.67 2 3.34 2 3 2 C2.67 3.65 2.34 5.3 2 7 C1.34 7 0.68 7 0 7 C0 4.69 0 2.38 0 0 Z " fill="#D690D9" transform="translate(316,105)"/>
<path d="M0 0 C1.98 0 3.96 0 6 0 C6 2.31 6 4.62 6 7 C5.67 7 5.34 7 5 7 C4.67 5.35 4.34 3.7 4 2 C3.67 2 3.34 2 3 2 C2.67 3.65 2.34 5.3 2 7 C1.34 7 0.68 7 0 7 C0 4.69 0 2.38 0 0 Z " fill="#D690D9" transform="translate(256,105)"/>
<path d="M0 0 C1.98 0 3.96 0 6 0 C6 2.31 6 4.62 6 7 C5.67 7 5.34 7 5 7 C4.67 5.35 4.34 3.7 4 2 C3.67 2 3.34 2 3 2 C2.67 3.65 2.34 5.3 2 7 C1.34 7 0.68 7 0 7 C0 4.69 0 2.38 0 0 Z " fill="#D690D9" transform="translate(253,70)"/>
<path d="M0 0 C1.98 0 3.96 0 6 0 C6 2.31 6 4.62 6 7 C5.67 7 5.34 7 5 7 C4.67 5.35 4.34 3.7 4 2 C3.67 2 3.34 2 3 2 C2.67 3.65 2.34 5.3 2 7 C1.34 7 0.68 7 0 7 C0 4.69 0 2.38 0 0 Z " fill="#D690D9" transform="translate(195,70)"/>
<path d="M0 0 C1.98 0 3.96 0 6 0 C6 2.31 6 4.62 6 7 C5.67 7 5.34 7 5 7 C4.67 5.35 4.34 3.7 4 2 C3.67 2 3.34 2 3 2 C2.67 3.65 2.34 5.3 2 7 C1.34 7 0.68 7 0 7 C0 4.69 0 2.38 0 0 Z " fill="#D690D9" transform="translate(148,17)"/>
<path d="M0 0 C1.98 0 3.96 0 6 0 C6 2.31 6 4.62 6 7 C5.67 7 5.34 7 5 7 C4.67 5.35 4.34 3.7 4 2 C3.67 2 3.34 2 3 2 C2.67 3.65 2.34 5.3 2 7 C1.34 7 0.68 7 0 7 C0 4.69 0 2.38 0 0 Z " fill="#D690D9" transform="translate(115,17)"/>
<path d="M0 0 C1.32 0 2.64 0 4 0 C4 2.31 4 4.62 4 7 C2.35 7 0.7 7 -1 7 C-0.67 5.68 -0.34 4.36 0 3 C0.99 3 1.98 3 3 3 C3 2.34 3 1.68 3 1 C2.01 0.67 1.02 0.34 0 0 Z " fill="#D690D9" transform="translate(88,442)"/>
<path d="M0 0 C1.32 0 2.64 0 4 0 C4 2.31 4 4.62 4 7 C2.35 7 0.7 7 -1 7 C-0.67 5.68 -0.34 4.36 0 3 C0.99 3 1.98 3 3 3 C3 2.34 3 1.68 3 1 C2.01 0.67 1.02 0.34 0 0 Z " fill="#D690D9" transform="translate(209,425)"/>
<path d="M0 0 C1.32 0 2.64 0 4 0 C4 2.31 4 4.62 4 7 C2.35 7 0.7 7 -1 7 C-0.67 5.68 -0.34 4.36 0 3 C0.99 3 1.98 3 3 3 C3 2.34 3 1.68 3 1 C2.01 0.67 1.02 0.34 0 0 Z " fill="#D690D9" transform="translate(143,425)"/>
<path d="M0 0 C2.0625 0.4375 2.0625 0.4375 4 1 C4 1.99 4 2.98 4 4 C3.01 4.33 2.02 4.66 1 5 C1.99 5.66 2.98 6.32 4 7 C2.35 6.67 0.7 6.34 -1 6 C-1.042721 4.33388095 -1.04063832 2.66617115 -1 1 C-0.67 0.67 -0.34 0.34 0 0 Z " fill="#D690DA" transform="translate(187,425)"/>
<path d="M0 0 C1.32 0 2.64 0 4 0 C4 2.31 4 4.62 4 7 C2.35 7 0.7 7 -1 7 C-0.67 5.68 -0.34 4.36 0 3 C0.99 3 1.98 3 3 3 C3 2.34 3 1.68 3 1 C2.01 0.67 1.02 0.34 0 0 Z " fill="#D690D9" transform="translate(49,389)"/>
<path d="M0 0 C0.66 0 1.32 0 2 0 C2 0.99 2 1.98 2 3 C2.99 3.33 3.98 3.66 5 4 C4.01 4.495 4.01 4.495 3 5 C2.34444881 7.52733235 2.34444881 7.52733235 2 10 C1.34 10 0.68 10 0 10 C0 6.7 0 3.4 0 0 Z " fill="#D791DA" transform="translate(89,67)"/>
<path d="M0 0 C2.625 -0.1875 2.625 -0.1875 5 0 C3.68 0.33 2.36 0.66 1 1 C1.33 1.99 1.66 2.98 2 4 C1.72428861 6.00875442 1.39764263 8.01178687 1 10 C0.34 10 -0.32 10 -1 10 C-2.25 3.375 -2.25 3.375 0 0 Z " fill="#D690DA" transform="translate(109,14)"/>
<path d="M0 0 C0.33 0.99 0.66 1.98 1 3 C1.99 3.33 2.98 3.66 4 4 C3.01 4.495 3.01 4.495 2 5 C1.34444881 7.52733235 1.34444881 7.52733235 1 10 C0.34 10 -0.32 10 -1 10 C-1.02689216 8.52093108 -1.04634621 7.04172517 -1.0625 5.5625 C-1.07410156 4.73878906 -1.08570313 3.91507813 -1.09765625 3.06640625 C-1 1 -1 1 0 0 Z " fill="#D791DA" transform="translate(65,244)"/>
<path d="M0 0 C0.99 0.33 1.98 0.66 3 1 C2.34 1 1.68 1 1 1 C1.33 1.99 1.66 2.98 2 4 C1.72428861 6.00875442 1.39764263 8.01178687 1 10 C0.34 10 -0.32 10 -1 10 C-2.25 3.375 -2.25 3.375 0 0 Z " fill="#D690DA" transform="translate(348,102)"/>
<path d="M0 0 C1.98 0.99 1.98 0.99 4 2 C4 2.66 4 3.32 4 4 C3.34 4 2.68 4 2 4 C2 5.65 2 7.3 2 9 C1.34 9 0.68 9 0 9 C0 6.03 0 3.06 0 0 Z " fill="#D791DA" transform="translate(78,103)"/>
<path d="M0 0 C0.99 0.33 1.98 0.66 3 1 C2.34 1 1.68 1 1 1 C1.33 1.99 1.66 2.98 2 4 C1.72428861 6.00875442 1.39764263 8.01178687 1 10 C0.34 10 -0.32 10 -1 10 C-2.25 3.375 -2.25 3.375 0 0 Z " fill="#D690DA" transform="translate(78,67)"/>
<path d="M0 0 C2.475 0.495 2.475 0.495 5 1 C5 2.98 5 4.96 5 7 C3.35 7 1.7 7 0 7 C0.99 6.67 1.98 6.34 3 6 C3 5.34 3 4.68 3 4 C2.34 3.67 1.68 3.34 1 3 C1.66 3 2.32 3 3 3 C3 2.34 3 1.68 3 1 C2.01 1.33 1.02 1.66 0 2 C0 1.34 0 0.68 0 0 Z " fill="#D58FD8" transform="translate(162,425)"/>
<path d="M0 0 C0.99 0.33 1.98 0.66 3 1 C3 2.65 3 4.3 3 6 C2.01 6.33 1.02 6.66 0 7 C-1.125 2.25 -1.125 2.25 0 0 Z " fill="#E096E4" transform="translate(401,424)"/>
<path d="M0 0 C0.66 0.33 1.32 0.66 2 1 C1.67 3.97 1.34 6.94 1 10 C0.34 10 -0.32 10 -1 10 C-2.25 3.375 -2.25 3.375 0 0 Z " fill="#D690DA" transform="translate(36,368)"/>
<path d="M0 0 C0.66 0.33 1.32 0.66 2 1 C1.67 3.97 1.34 6.94 1 10 C0.34 10 -0.32 10 -1 10 C-2.25 3.375 -2.25 3.375 0 0 Z " fill="#D690D9" transform="translate(35,351)"/>
<path d="M0 0 C0.66 0.33 1.32 0.66 2 1 C1.67 3.97 1.34 6.94 1 10 C0.34 10 -0.32 10 -1 10 C-2.25 3.375 -2.25 3.375 0 0 Z " fill="#D690DA" transform="translate(81,333)"/>
<path d="M0 0 C2.475 0.495 2.475 0.495 5 1 C5 2.98 5 4.96 5 7 C3.35 7 1.7 7 0 7 C0.99 6.67 1.98 6.34 3 6 C3 5.34 3 4.68 3 4 C2.34 3.67 1.68 3.34 1 3 C1.66 3 2.32 3 3 3 C3 2.34 3 1.68 3 1 C2.01 1.33 1.02 1.66 0 2 C0 1.34 0 0.68 0 0 Z " fill="#D58FD8" transform="translate(478,105)"/>
<path d="M0 0 C0.99 0.33 1.98 0.66 3 1 C2.34 1 1.68 1 1 1 C1.33 1.99 1.66 2.98 2 4 C1.72428861 6.00875442 1.39764263 8.01178687 1 10 C0.34 10 -0.32 10 -1 10 C-2.25 3.375 -2.25 3.375 0 0 Z " fill="#D690DA" transform="translate(190,102)"/>
<path d="M0 0 C2.475 0.495 2.475 0.495 5 1 C5 2.98 5 4.96 5 7 C3.35 7 1.7 7 0 7 C0.99 6.67 1.98 6.34 3 6 C3 5.34 3 4.68 3 4 C2.34 3.67 1.68 3.34 1 3 C1.66 3 2.32 3 3 3 C3 2.34 3 1.68 3 1 C2.01 1.33 1.02 1.66 0 2 C0 1.34 0 0.68 0 0 Z " fill="#D58FD8" transform="translate(89,88)"/>
<path d="M0 0 C0.66 0.33 1.32 0.66 2 1 C1.67 3.97 1.34 6.94 1 10 C0.34 10 -0.32 10 -1 10 C-2.25 3.375 -2.25 3.375 0 0 Z " fill="#D690D9" transform="translate(25,85)"/>
<path d="M0 0 C0.99 0.99 1.98 1.98 3 3 C3.33 2.01 3.66 1.02 4 0 C4.66 0.33 5.32 0.66 6 1 C5.49396008 3.16874252 5.00016187 4.99967627 4 7 C3.01 6.67 2.02 6.34 1 6 C0.67 4.02 0.34 2.04 0 0 Z " fill="#D791DA" transform="translate(232,70)"/>
<path d="M0 0 C0.66 0.33 1.32 0.66 2 1 C1.67 3.97 1.34 6.94 1 10 C0.34 10 -0.32 10 -1 10 C-2.25 3.375 -2.25 3.375 0 0 Z " fill="#D690DA" transform="translate(100,31)"/>
<path d="M0 0 C2.475 0.495 2.475 0.495 5 1 C5 2.98 5 4.96 5 7 C3.35 7 1.7 7 0 7 C0.99 6.67 1.98 6.34 3 6 C3 5.34 3 4.68 3 4 C2.34 3.67 1.68 3.34 1 3 C1.66 3 2.32 3 3 3 C3 2.34 3 1.68 3 1 C2.01 1.33 1.02 1.66 0 2 C0 1.34 0 0.68 0 0 Z " fill="#D58FD8" transform="translate(227,17)"/>
<path d="M0 0 C2.125 0.375 2.125 0.375 4 1 C4 1.99 4 2.98 4 4 C2.68 4 1.36 4 0 4 C-0.33 4.66 -0.66 5.32 -1 6 C-1.625 4.125 -1.625 4.125 -2 2 C-1.34 1.34 -0.68 0.68 0 0 Z " fill="#D791DA" transform="translate(184,17)"/>
<path d="M0 0 C0.66 0.33 1.32 0.66 2 1 C1.67 3.97 1.34 6.94 1 10 C0.34 10 -0.32 10 -1 10 C-2.25 3.375 -2.25 3.375 0 0 Z " fill="#D690DA" transform="translate(359,14)"/>
<path d="M0 0 C0.66 0.33 1.32 0.66 2 1 C1.67 3.97 1.34 6.94 1 10 C0.34 10 -0.32 10 -1 10 C-2.25 3.375 -2.25 3.375 0 0 Z " fill="#D690D9" transform="translate(138,14)"/>
<path d="M0 0 C2.475 0.495 2.475 0.495 5 1 C5 2.98 5 4.96 5 7 C3.35 7 1.7 7 0 7 C0.99 6.67 1.98 6.34 3 6 C3 5.34 3 4.68 3 4 C2.34 3.67 1.68 3.34 1 3 C1.66 3 2.32 3 3 3 C3 2.34 3 1.68 3 1 C2.01 1.33 1.02 1.66 0 2 C0 1.34 0 0.68 0 0 Z " fill="#D58FD8" transform="translate(84,17)"/>
<path d="M0 0 C0.66 0 1.32 0 2 0 C2 0.66 2 1.32 2 2 C2.66 2.33 3.32 2.66 4 3 C3.34 3 2.68 3 2 3 C2.33 4.98 2.66 6.96 3 9 C2.01 8.67 1.02 8.34 0 8 C-1.125 2.25 -1.125 2.25 0 0 Z " fill="#D791DA" transform="translate(215,423)"/>
<path d="M0 0 C0.66 0 1.32 0 2 0 C2 0.66 2 1.32 2 2 C2.66 2.33 3.32 2.66 4 3 C3.34 3 2.68 3 2 3 C2.33 4.98 2.66 6.96 3 9 C2.01 8.67 1.02 8.34 0 8 C-1.125 2.25 -1.125 2.25 0 0 Z " fill="#D791DA" transform="translate(55,387)"/>
<path d="M0 0 C0.66 0 1.32 0 2 0 C3.06546953 3.1964086 3.07427838 5.65747276 3 9 C2.01 8.67 1.02 8.34 0 8 C-1.125 2.25 -1.125 2.25 0 0 Z " fill="#D690DA" transform="translate(57,369)"/>
<path d="M0 0 C0 2.97 0 5.94 0 9 C-0.66 9 -1.32 9 -2 9 C-2 6.69 -2 4.38 -2 2 C-2.66 1.67 -3.32 1.34 -4 1 C-2 0 -2 0 0 0 Z " fill="#D791DA" transform="translate(81,352)"/>
<path d="M0 0 C2.0625 0.4375 2.0625 0.4375 4 1 C4 1.99 4 2.98 4 4 C2.68 4 1.36 4 0 4 C-0.33 4.66 -0.66 5.32 -1 6 C-1.042721 4.33388095 -1.04063832 2.66617115 -1 1 C-0.67 0.67 -0.34 0.34 0 0 Z " fill="#D790DA" transform="translate(7,300)"/>
<path d="M0 0 C0 2.97 0 5.94 0 9 C-0.66 9 -1.32 9 -2 9 C-2 6.69 -2 4.38 -2 2 C-2.66 1.67 -3.32 1.34 -4 1 C-2 0 -2 0 0 0 Z " fill="#D791DA" transform="translate(93,263)"/>
<path d="M0 0 C0.66 0 1.32 0 2 0 C3.06546953 3.1964086 3.07427838 5.65747276 3 9 C2.01 8.67 1.02 8.34 0 8 C-1.125 2.25 -1.125 2.25 0 0 Z " fill="#D690DA" transform="translate(103,245)"/>
<path d="M0 0 C0 2.97 0 5.94 0 9 C-0.66 9 -1.32 9 -2 9 C-2 6.69 -2 4.38 -2 2 C-2.66 1.67 -3.32 1.34 -4 1 C-2 0 -2 0 0 0 Z " fill="#D791DA" transform="translate(114,192)"/>
<path d="M0 0 C0.66 0 1.32 0 2 0 C3.06546953 3.1964086 3.07427838 5.65747276 3 9 C2.01 8.67 1.02 8.34 0 8 C-1.125 2.25 -1.125 2.25 0 0 Z " fill="#D690DA" transform="translate(104,157)"/>
<path d="M0 0 C0.99 0.33 1.98 0.66 3 1 C3.66 0.67 4.32 0.34 5 0 C4.34 2.31 3.68 4.62 3 7 C1.68 6.01 0.36 5.02 -1 4 C-0.67 2.68 -0.34 1.36 0 0 Z " fill="#D690D9" transform="translate(63,105)"/>
<path d="M0 0 C1.32 0.33 2.64 0.66 4 1 C4 1.99 4 2.98 4 4 C2.02 4 0.04 4 -2 4 C-1.34 2.68 -0.68 1.36 0 0 Z " fill="#D791DB" transform="translate(311,105)"/>
<path d="M0 0 C1.32 0.33 2.64 0.66 4 1 C4 1.99 4 2.98 4 4 C2.02 4 0.04 4 -2 4 C-1.34 2.68 -0.68 1.36 0 0 Z " fill="#D791DB" transform="translate(283,105)"/>
<path d="M0 0 C2.0625 0.4375 2.0625 0.4375 4 1 C4 1.99 4 2.98 4 4 C2.68 4 1.36 4 0 4 C-0.33 4.66 -0.66 5.32 -1 6 C-1.042721 4.33388095 -1.04063832 2.66617115 -1 1 C-0.67 0.67 -0.34 0.34 0 0 Z " fill="#D790DA" transform="translate(160,105)"/>
<path d="M0 0 C0.66 0 1.32 0 2 0 C3.06546953 3.1964086 3.07427838 5.65747276 3 9 C2.01 8.67 1.02 8.34 0 8 C-1.125 2.25 -1.125 2.25 0 0 Z " fill="#D690DA" transform="translate(181,103)"/>
<path d="M0 0 C0.66 0 1.32 0 2 0 C3.06546953 3.1964086 3.07427838 5.65747276 3 9 C2.01 8.67 1.02 8.34 0 8 C-1.125 2.25 -1.125 2.25 0 0 Z " fill="#D790DA" transform="translate(35,103)"/>
<path d="M0 0 C0.66 0 1.32 0 2 0 C3.06546953 3.1964086 3.07427838 5.65747276 3 9 C2.01 8.67 1.02 8.34 0 8 C-1.125 2.25 -1.125 2.25 0 0 Z " fill="#D690DA" transform="translate(103,86)"/>
<path d="M0 0 C2.0625 0.4375 2.0625 0.4375 4 1 C4 1.99 4 2.98 4 4 C2.68 4 1.36 4 0 4 C-0.33 4.66 -0.66 5.32 -1 6 C-1.042721 4.33388095 -1.04063832 2.66617115 -1 1 C-0.67 0.67 -0.34 0.34 0 0 Z " fill="#D790DA" transform="translate(240,70)"/>
<path d="M0 0 C2.0625 0.4375 2.0625 0.4375 4 1 C4 1.99 4 2.98 4 4 C2.68 4 1.36 4 0 4 C-0.33 4.66 -0.66 5.32 -1 6 C-1.042721 4.33388095 -1.04063832 2.66617115 -1 1 C-0.67 0.67 -0.34 0.34 0 0 Z " fill="#D790DA" transform="translate(98,70)"/>
<path d="M0 0 C0.66 0 1.32 0 2 0 C3.06546953 3.1964086 3.07427838 5.65747276 3 9 C2.01 8.67 1.02 8.34 0 8 C-1.125 2.25 -1.125 2.25 0 0 Z " fill="#D690DA" transform="translate(175,68)"/>
<path d="M0 0 C0.66 0 1.32 0 2 0 C3.06546953 3.1964086 3.07427838 5.65747276 3 9 C2.01 8.67 1.02 8.34 0 8 C-1.125 2.25 -1.125 2.25 0 0 Z " fill="#D690DA" transform="translate(121,32)"/>
<path d="M0 0 C0.66 0 1.32 0 2 0 C3.06546953 3.1964086 3.07427838 5.65747276 3 9 C2.01 8.67 1.02 8.34 0 8 C-1.125 2.25 -1.125 2.25 0 0 Z " fill="#D690DA" transform="translate(88,32)"/>
<path d="M0 0 C0.66 0 1.32 0 2 0 C3.06546953 3.1964086 3.07427838 5.65747276 3 9 C2.01 8.67 1.02 8.34 0 8 C-1.125 2.25 -1.125 2.25 0 0 Z " fill="#D690DA" transform="translate(380,15)"/>
<path d="M0 0 C0.66 0 1.32 0 2 0 C2 1.98 2 3.96 2 6 C0.68 6 -0.64 6 -2 6 C-1.49396008 3.83125748 -1.00016187 2.00032373 0 0 Z " fill="#D58EDC" transform="translate(212,333)"/>
<path d="M0 0 C0.66 0 1.32 0 2 0 C2 0.99 2 1.98 2 3 C2.66 3.33 3.32 3.66 4 4 C3.34 4 2.68 4 2 4 C2 4.99 2 5.98 2 7 C1.34 7 0.68 7 0 7 C0 6.01 0 5.02 0 4 C-0.66 3.67 -1.32 3.34 -2 3 C-1.34 3 -0.68 3 0 3 C0 2.01 0 1.02 0 0 Z " fill="#D791DA" transform="translate(300,424)"/>
<path d="M0 0 C1.65 0 3.3 0 5 0 C4.34 0.66 3.68 1.32 3 2 C2.35232207 4.57061311 2.35232207 4.57061311 2 7 C1.34 7 0.68 7 0 7 C0 4.69 0 2.38 0 0 Z " fill="#D691DA" transform="translate(95,88)"/>
<path d="M0 0 C1.65 0 3.3 0 5 0 C4.34 0.66 3.68 1.32 3 2 C2.35232207 4.57061311 2.35232207 4.57061311 2 7 C1.34 7 0.68 7 0 7 C0 4.69 0 2.38 0 0 Z " fill="#D691DA" transform="translate(45,17)"/>
<path d="M0 0 C1.32 0.33 2.64 0.66 4 1 C3.34 2.98 2.68 4.96 2 7 C1.34 7 0.68 7 0 7 C0 4.69 0 2.38 0 0 Z " fill="#D791DA" transform="translate(20,212)"/>
<path d="M0 0 C1.32 0.33 2.64 0.66 4 1 C3.34 2.98 2.68 4.96 2 7 C1.34 7 0.68 7 0 7 C0 4.69 0 2.38 0 0 Z " fill="#D791DA" transform="translate(20,194)"/>
<path d="M0 0 C1.32 0.33 2.64 0.66 4 1 C3.34 2.98 2.68 4.96 2 7 C1.34 7 0.68 7 0 7 C0 4.69 0 2.38 0 0 Z " fill="#D791DA" transform="translate(99,105)"/>
<path d="M0 0 C2 0 2 0 3.625 1.375 C5 3 5 3 5 5 C3.35 5 1.7 5 0 5 C0 3.35 0 1.7 0 0 Z " fill="#E298E6" transform="translate(326,106)"/>
<path d="M0 0 C2 0 2 0 3.625 1.375 C5 3 5 3 5 5 C3.35 5 1.7 5 0 5 C0 3.35 0 1.7 0 0 Z " fill="#E298E6" transform="translate(147,106)"/>
<path d="M0 0 C1.32 0.33 2.64 0.66 4 1 C3.34 2.98 2.68 4.96 2 7 C1.34 7 0.68 7 0 7 C0 4.69 0 2.38 0 0 Z " fill="#D791DA" transform="translate(58,88)"/>
<path d="M0 0 C1.32 0.33 2.64 0.66 4 1 C3.34 2.98 2.68 4.96 2 7 C1.34 7 0.68 7 0 7 C0 4.69 0 2.38 0 0 Z " fill="#D791DA" transform="translate(272,70)"/>
</svg>
