<?xml version="1.0" encoding="UTF-8"?>
<svg version="1.1" xmlns="http://www.w3.org/2000/svg" width="256" height="256">
<path d="M0 0 C1.52524644 -0.00599212 3.05048987 -0.01279923 4.57572937 -0.02035522 C8.70211348 -0.037957 12.82841453 -0.04270825 16.95483255 -0.0439868 C19.53933343 -0.04541273 22.12381349 -0.04969077 24.70830917 -0.05498123 C33.74354125 -0.07346516 42.77871449 -0.08165426 51.81396484 -0.08007812 C60.20500691 -0.0788785 68.59579103 -0.09994978 76.98676789 -0.13156545 C84.21512585 -0.15781934 91.44340006 -0.16844156 98.67180526 -0.16716731 C102.97809486 -0.16666017 107.28415523 -0.17220433 111.59039688 -0.19352341 C115.64696318 -0.21305913 119.70308528 -0.21292705 123.75966835 -0.19849014 C125.23735398 -0.19641949 126.71506855 -0.20099713 128.19270515 -0.21321106 C146.77296276 -0.35668024 162.06902182 5.02924927 175.65185547 17.91552734 C188.54864497 31.52880515 192.20246515 47.18105728 192.20825195 65.37280273 C192.21588341 66.89642742 192.22431259 68.4200483 192.23347473 69.94366455 C192.25533489 74.0659749 192.26420767 78.18821111 192.26930118 82.31057286 C192.27295614 84.89307155 192.27920219 87.47555116 192.28630257 90.05804253 C192.31077183 99.08793863 192.32384259 108.11777753 192.32739258 117.14770508 C192.33102139 125.53082691 192.36087622 133.9135812 192.40279716 142.29659086 C192.43763676 149.51986933 192.4529434 156.74302684 192.45363861 163.96638864 C192.45442707 168.26885941 192.4629643 172.57095565 192.49163628 176.8733387 C192.51805126 180.92751367 192.51989373 184.98100989 192.50398064 189.03523254 C192.50218431 190.5108941 192.50868954 191.98659684 192.52479935 193.46217155 C192.67859976 208.48329533 188.99697784 221.13822099 179.90185547 233.29052734 C179.32951172 234.06912109 178.75716797 234.84771484 178.16748047 235.64990234 C169.30855683 246.62891027 155.72543479 253.9409207 141.90185547 256.29052734 C139.74537115 256.38602707 137.58631699 256.42958005 135.42773438 256.43769836 C134.11862595 256.44485367 132.80951752 256.45200897 131.46073914 256.4593811 C130.01663232 256.46222109 128.57252524 256.46493285 127.12841797 256.4675293 C125.60199327 256.47379849 124.07557009 256.4804457 122.54914856 256.48744202 C117.54172824 256.50843756 112.53430779 256.51884293 107.52685547 256.52880859 C105.79826848 256.53285839 104.06968164 256.53697538 102.34109497 256.54115868 C94.21511664 256.5602036 86.08914733 256.57443385 77.96315098 256.58277065 C68.60804026 256.59252872 59.25316706 256.61881371 49.89813995 256.65927154 C42.65203409 256.68952434 35.40599593 256.70424833 28.15982819 256.70755166 C23.83953801 256.70989246 19.51950175 256.71872507 15.19927979 256.74401283 C11.12800226 256.76745845 7.05714284 256.77146137 2.98581505 256.76125145 C1.50125416 256.76075989 0.01667151 256.76696658 -1.46782494 256.7808075 C-19.08065485 256.93567601 -33.9431911 251.87261122 -46.81689453 239.63037109 C-60.22509368 225.87778327 -64.3985688 210.97800515 -64.40454102 192.22412109 C-64.41217256 190.70211892 -64.42060175 189.18012056 -64.42976379 187.65812683 C-64.45162498 183.53988143 -64.46049704 179.42171025 -64.46559024 175.30341339 C-64.46924552 172.72291702 -64.47549178 170.14243973 -64.48259163 167.56195068 C-64.50706267 158.53738562 -64.52013173 149.51287778 -64.52368164 140.48828125 C-64.5273091 132.11313156 -64.55715364 123.73835008 -64.59908623 115.36331272 C-64.63394269 108.14511413 -64.64923277 100.92703659 -64.64992768 93.70875454 C-64.65071566 89.41016404 -64.6592303 85.11194861 -64.68792534 80.81344604 C-64.71436903 76.76173031 -64.7161673 72.71069349 -64.7002697 68.65892982 C-64.69847552 67.18530084 -64.70495837 65.71163041 -64.72108841 64.23808861 C-64.91133421 45.70389301 -59.2628301 30.2143474 -46.51220703 16.61083984 C-33.07507734 3.69554043 -18.08366425 -0.01420732 0 0 Z " fill="#FDFDFD" transform="translate(64.09814453125,-0.29052734375)"/>
<path d="M0 0 C15.07357955 -1.67484217 32.18691286 6.2411137 44 15 C47.4953437 17.84862813 50.78473298 20.83978892 54 24 C54.6496875 24.63679688 55.299375 25.27359375 55.96875 25.9296875 C65.46659512 35.96907642 69.48941156 47.99739388 69.25390625 61.5625 C68.04979938 77.86425461 61.31875146 93.7116976 49.43359375 105.015625 C44.63288285 108.93016936 39.6906357 111.55971416 33.5625 112.5625 C31 112 31 112 29.4765625 110.32421875 C23.60323999 101.07917406 22.71463424 89.62722046 24 79 C25.6702576 73.61984331 28.66615631 70.93783606 33.4375 68.125 C36.8516688 66.37821596 40.34957365 65.16603547 44 64 C42.96101563 63.98582031 41.92203125 63.97164062 40.8515625 63.95703125 C30.38979936 63.6631121 22.47758042 62.22249836 14.375 55.0625 C2.19065506 41.64247857 -2.69984559 23.69752599 -2.37109375 5.90625 C-2 3 -2 3 0 0 Z " fill="#4D3879" transform="translate(56,42)"/>
<path d="M0 0 C3.46703214 4.84116074 1.32541286 13.45120771 0.65625 19.0390625 C-1.6017088 32.33417657 -7.57500452 47.0622621 -18.15625 55.7890625 C-26.89978613 61.91100237 -35.30941224 62.39600157 -45.71875 62.7890625 C-45.00589844 63.00820312 -44.29304688 63.22734375 -43.55859375 63.453125 C-35.84132613 66.00823649 -30.63308235 68.84061222 -25.78125 75.4140625 C-22.46214268 85.95710928 -25.10605381 97.83617482 -29.90625 107.5390625 C-30.504375 108.6115625 -31.1025 109.6840625 -31.71875 110.7890625 C-40.02105395 111.87197171 -45.38572158 107.14178845 -51.90625 102.5390625 C-63.81632931 90.89365162 -69.91018297 74.77190781 -70.15625 58.2890625 C-70.04829428 43.28321716 -63.45609296 31.049008 -53.32421875 20.23828125 C-44.02088359 11.49286724 -13.58076401 -9.56826556 0 0 Z " fill="#4E3979" transform="translate(204.71875,43.2109375)"/>
<path d="M0 0 C3.3 0 6.6 0 10 0 C12.99469643 5.77990958 15.5224706 11.6057028 17.85546875 17.6796875 C18.20257401 18.57366241 18.54967926 19.46763733 18.90730286 20.38870239 C20.00435134 23.21607046 21.09614297 26.04543078 22.1875 28.875 C23.2905886 31.72558662 24.39476454 34.57574764 25.49983215 37.42556763 C26.18454766 39.19234859 26.86793126 40.95964642 27.54985046 42.72750854 C27.8571962 43.52238678 28.16454193 44.31726501 28.48120117 45.13623047 C28.88613045 46.18591507 28.88613045 46.18591507 29.29924011 47.25680542 C30.66245384 50.64790532 31.67296783 51.49746934 35 53 C34.34 53.99 33.68 54.98 33 56 C30.84521484 56.34057617 30.84521484 56.34057617 28.2109375 56.29296875 C27.26992187 56.28330078 26.32890625 56.27363281 25.359375 56.26367188 C24.37453125 56.23853516 23.3896875 56.21339844 22.375 56.1875 C20.88613281 56.16719727 20.88613281 56.16719727 19.3671875 56.14648438 C16.91091928 56.11105743 14.45572715 56.06166196 12 56 C12 54.68 12 53.36 12 52 C13.98 51.505 13.98 51.505 16 51 C15.4721307 46.51311093 14.70509 43.26272499 13 39 C6.73 38.67 0.46 38.34 -6 38 C-8.14462031 46.11420063 -8.14462031 46.11420063 -8 51 C-6.68 51.33 -5.36 51.66 -4 52 C-4 53.32 -4 54.64 -4 56 C-9.28 56 -14.56 56 -20 56 C-20 52 -20 52 -18.16601562 50.14672852 C-17.45123047 49.43830811 -16.73644531 48.7298877 -16 48 C-14.52739822 45.02153362 -14.52739822 45.02153362 -13.34375 41.65234375 C-13.11473999 41.04040665 -12.88572998 40.42846954 -12.64978027 39.79798889 C-11.92285322 37.84814368 -11.21126154 35.8931066 -10.5 33.9375 C-10.02313357 32.65132219 -9.545277 31.36551103 -9.06640625 30.08007812 C-8.13382732 27.57083914 -7.21154139 25.05853931 -6.29394531 22.54370117 C-5.4692876 20.28522821 -4.63618703 18.02980756 -3.79199219 15.77856445 C-3.25300293 14.33356567 -3.25300293 14.33356567 -2.703125 12.859375 C-2.23374512 11.61172363 -2.23374512 11.61172363 -1.75488281 10.33886719 C-0.64320257 6.894528 -0.27184155 3.60190058 0 0 Z " fill="#141812" transform="translate(214,172)"/>
<path d="M0 0 C-1 3 -1 3 -3.0625 4.1875 C-3.701875 4.455625 -4.34125 4.72375 -5 5 C-5.09922625 10.01703179 -5.17163587 15.03348652 -5.21972656 20.05126953 C-5.23978369 21.75644894 -5.26703657 23.46156006 -5.30175781 25.16650391 C-5.35053861 27.62419524 -5.37302719 30.08097366 -5.390625 32.5390625 C-5.41127014 33.29555084 -5.43191528 34.05203918 -5.45318604 34.83145142 C-5.45535489 40.00221854 -4.41510623 42.90110162 -1 47 C3.05802849 49.70535233 6.2386985 49.52813071 11 49 C15.14848848 47.49614735 15.14848848 47.49614735 18.13916016 44.41430664 C19.40566374 40.86227773 19.32529423 37.34766017 19.3359375 33.62109375 C19.3425943 32.8126149 19.3492511 32.00413605 19.35610962 31.17115784 C19.36621558 29.4657722 19.37092728 27.76034719 19.37060547 26.05493164 C19.37499099 23.44286505 19.41136346 20.83247228 19.44921875 18.22070312 C19.45508486 16.56250578 19.45905563 14.90430041 19.4609375 13.24609375 C19.47530853 12.46479599 19.48967957 11.68349823 19.50448608 10.87852478 C19.52880088 8.42034172 19.52880088 8.42034172 19 5 C17.07841844 3.14888827 17.07841844 3.14888827 15 2 C15 1.01 15 0.02 15 -1 C20.28 -1 25.56 -1 31 -1 C31.495 0.485 31.495 0.485 32 2 C30.78111084 2.48956177 30.78111084 2.48956177 29.53759766 2.98901367 C26.60702974 4.8500914 26.60702974 4.8500914 26.38818359 8.6418457 C26.36731307 10.1530173 26.37242059 11.66468949 26.3984375 13.17578125 C26.39043121 13.97856003 26.38242493 14.78133881 26.37417603 15.60844421 C26.35107754 18.17697411 26.36057117 20.74392708 26.375 23.3125 C26.37885502 25.87006758 26.37532618 28.42693137 26.35440063 30.98442078 C26.34237253 32.57488355 26.34488001 34.16554361 26.36410522 35.75593567 C26.33604042 41.36499219 25.19099658 45.46191485 21.421875 49.828125 C15.32548864 55.01290219 9.50398301 56.45964543 1.5546875 56.2421875 C-4.54742312 55.66369995 -9.26192379 54.2656525 -13.4375 49.625 C-17.65421826 44.36311225 -18.31399497 39.23485094 -18.4140625 32.63671875 C-18.43342865 31.84473587 -18.4527948 31.05275299 -18.4727478 30.23677063 C-18.53227232 27.72045481 -18.57881958 25.20409256 -18.625 22.6875 C-18.66320481 20.9758921 -18.70225799 19.26430291 -18.7421875 17.55273438 C-18.8379513 13.36864251 -18.9220818 9.18446069 -19 5 C-20.32 4.34 -21.64 3.68 -23 3 C-23 2.01 -23 1.02 -23 0 C-19.72966072 -0.19689005 -16.45872059 -0.38089008 -13.1875 -0.5625 C-12.25873047 -0.61857422 -11.32996094 -0.67464844 -10.37304688 -0.73242188 C-9.48037109 -0.78076172 -8.58769531 -0.82910156 -7.66796875 -0.87890625 C-6.84578857 -0.9260376 -6.0236084 -0.97316895 -5.17651367 -1.02172852 C-3 -1 -3 -1 0 0 Z " fill="#151914" transform="translate(80,173)"/>
<path d="M0 0 C1 1 1 1 1.09765625 3.94140625 C1.08605469 5.13636719 1.07445312 6.33132812 1.0625 7.5625 C1.05347656 8.76003906 1.04445312 9.95757812 1.03515625 11.19140625 C1.02355469 12.11824219 1.01195312 13.04507813 1 14 C-0.32 14 -1.64 14 -3 14 C-3.27972656 13.38511719 -3.55945313 12.77023438 -3.84765625 12.13671875 C-5.94362876 7.91107642 -7.27148498 5.44520362 -11.375 2.9375 C-15.84755664 1.78080432 -19.46869539 0.8968841 -23.85546875 2.80859375 C-28.03563695 5.38443301 -30.5751507 8.51164116 -32.3359375 13.08203125 C-34.46568206 22.44037939 -34.53537777 32.75895637 -29.40234375 41.10546875 C-27.3610511 43.86320394 -26.1512897 45.49286145 -23 47 C-18.17107209 47.62002851 -13.74473046 47.60686277 -9.125 46 C-6.49862914 43.52812154 -4.96752622 40.83037041 -3.30859375 37.64453125 C-2.87675781 37.10183594 -2.44492188 36.55914062 -2 36 C-0.68 36 0.64 36 2 36 C2.10287012 40.44913262 2.01132427 44.65345738 1 49 C-3.61096687 53.74024631 -11.4811661 54.1504947 -17.75 54.25 C-25.9319691 54.14973077 -32.72121725 52.19638937 -39.13671875 46.9765625 C-44.61691432 41.16318942 -47.34382196 34.31359347 -47.625 26.375 C-47.0873904 16.37546149 -43.40843199 8.73777394 -36 2 C-24.87438598 -6.28870579 -12.05760509 -5.53937946 0 0 Z " fill="#161A15" transform="translate(160,175)"/>
<path d="M0 0 C7.59 0 15.18 0 23 0 C23 0.66 23 1.32 23 2 C22.1857959 2.33692871 21.3715918 2.67385742 20.53271484 3.02099609 C17.86361656 4.68134572 17.86361656 4.68134572 17.54620361 6.92266846 C17.40306032 9.51548184 17.4127284 12.06796303 17.4765625 14.6640625 C17.4836171 16.08578262 17.4836171 16.08578262 17.49081421 17.53622437 C17.51218816 20.56655139 17.56883813 23.59513892 17.625 26.625 C17.64150183 28.67446278 17.65585126 30.72394411 17.66796875 32.7734375 C17.70197838 36.51145372 17.73659298 40.24929677 17.80712891 43.98681641 C17.81998932 44.73943756 17.83284973 45.49205872 17.84609985 46.26748657 C17.81587279 48.02979512 17.81587279 48.02979512 19 49 C23.77147805 49.41630345 28.37956984 49.5516358 32.9375 48 C35.90369245 45.12369217 37.39703836 41.77009413 39 38 C39.99 38 40.98 38 42 38 C42.05418326 40.08304538 42.09287551 42.16649768 42.125 44.25 C42.14820313 45.41015625 42.17140625 46.5703125 42.1953125 47.765625 C42 51 42 51 40 55 C26.8 55 13.6 55 0 55 C0 53.68 0 52.36 0 51 C1.32 50.34 2.64 49.68 4 49 C4 34.48 4 19.96 4 5 C2.68 4.34 1.36 3.68 0 3 C0 2.01 0 1.02 0 0 Z " fill="#121611" transform="translate(13,173)"/>
<path d="M0 0 C5.85458912 0.32134966 9.16857921 1.88658195 13.36328125 5.97265625 C18.79424449 12.28586458 21.91169112 19.20440194 24.21484375 27.125 C24.87576056 29.12690744 25.54133172 31.12729482 26.21484375 33.125 C26.49457031 32.09761719 26.77429688 31.07023437 27.0625 30.01171875 C30.25216084 18.78748012 34.07440643 7.95452569 44.1484375 1.07421875 C47.63268585 -0.52629609 50.44099297 -0.27934115 54.21484375 0.125 C54.21484375 1.775 54.21484375 3.425 54.21484375 5.125 C53.34472656 5.36283203 53.34472656 5.36283203 52.45703125 5.60546875 C51.67585938 5.83878906 50.8946875 6.07210937 50.08984375 6.3125 C48.94128906 6.64314453 48.94128906 6.64314453 47.76953125 6.98046875 C41.47123786 9.80218123 38.4226989 13.7693357 35.46484375 19.875 C34.8925 21.02484375 34.32015625 22.1746875 33.73046875 23.359375 C29.97870399 32.13474504 29.91131001 40.95332743 29.87931824 50.31898117 C29.8709476 52.68983298 29.85037499 55.06031445 29.82678223 57.43106079 C29.77071425 63.30967319 29.73507884 69.18837473 29.69915771 75.06713867 C29.66792619 80.05610827 29.62878528 85.0448914 29.5789032 90.03371048 C29.55884967 92.36863951 29.55052315 94.70342452 29.54260254 97.03842163 C29.52963518 98.4649102 29.51611562 99.89139389 29.50195312 101.31787109 C29.49466187 102.56313568 29.48737061 103.80840027 29.4798584 105.09140015 C29.21484375 108.125 29.21484375 108.125 27.21484375 111.125 C26.22484375 111.125 25.23484375 111.125 24.21484375 111.125 C22.82856 108.3524325 23.05935873 106.06534765 23.02539062 102.96289062 C23.0086731 101.66814819 22.99195557 100.37340576 22.97473145 99.03942871 C22.96804947 98.34560593 22.96136749 97.65178314 22.95448303 96.93693542 C22.93347144 94.76862794 22.90644798 92.60047024 22.87780762 90.43225098 C22.80793833 85.0473371 22.748561 79.6623163 22.68878174 74.27728271 C22.63787874 69.72769371 22.58305927 65.17818504 22.52296448 60.62870789 C22.49635006 58.48935317 22.4755601 56.34999113 22.45495605 54.21057129 C22.43823853 52.91582886 22.421521 51.62108643 22.40429688 50.28710938 C22.3917688 49.14286499 22.37924072 47.99862061 22.36633301 46.81970215 C22.39509415 44.15524627 22.39509415 44.15524627 21.21484375 42.125 C21.29993581 40.54052707 21.40797209 38.95725963 21.52734375 37.375 C21.63129712 27.49942974 16.61336329 17.50790716 10.21484375 10.125 C6.5284753 7.31171881 2.68127034 6.2635009 -1.78515625 5.125 C-2.34765625 3.1875 -2.34765625 3.1875 -2.78515625 1.125 C-1.78515625 0.125 -1.78515625 0.125 0 0 Z " fill="#57437F" transform="translate(103.78515625,34.875)"/>
<path d="M0 0 C7.59 0 15.18 0 23 0 C23 0.99 23 1.98 23 3 C21.68 3 20.36 3 19 3 C19 18.18 19 33.36 19 49 C20.32 49.66 21.64 50.32 23 51 C23 52.32 23 53.64 23 55 C15.74 55 8.48 55 1 55 C1 53.68 1 52.36 1 51 C2.32 50.34 3.64 49.68 5 49 C5.02467081 42.91276345 5.04284604 36.82555583 5.05493164 30.73828125 C5.05996852 28.66633599 5.06679825 26.5943943 5.07543945 24.52246094 C5.08753321 21.54881918 5.09323467 18.57522431 5.09765625 15.6015625 C5.10281754 14.67131256 5.10797882 13.74106262 5.11329651 12.78262329 C5.11337204 11.92188202 5.11344757 11.06114075 5.11352539 10.17431641 C5.11685631 9.03514267 5.11685631 9.03514267 5.12025452 7.87295532 C5.11601039 5.90786639 5.11601039 5.90786639 4 4 C1.98330173 2.86649466 1.98330173 2.86649466 0 2 C0 1.34 0 0.68 0 0 Z " fill="#131612" transform="translate(167,173)"/>
<path d="M0 0 C2.54384735 1.27192368 2.58575975 2.07799892 3.5078125 4.7109375 C3.77207031 5.46117187 4.03632813 6.21140625 4.30859375 6.984375 C4.57800781 7.77328125 4.84742188 8.5621875 5.125 9.375 C5.40214844 10.15617188 5.67929688 10.93734375 5.96484375 11.7421875 C8 17.59702124 8 17.59702124 8 21 C3.05 21 -1.9 21 -7 21 C-6.19143144 16.14858865 -5.16053594 12.25880098 -3.5 7.6875 C-2.83484375 5.83705078 -2.83484375 5.83705078 -2.15625 3.94921875 C-1 1 -1 1 0 0 Z " fill="#EFEFEE" transform="translate(217,185)"/>
<path d="M0 0 C1.32 0 2.64 0 4 0 C3.67 1.65 3.34 3.3 3 5 C1.68 5 0.36 5 -1 5 C-0.67 3.35 -0.34 1.7 0 0 Z " fill="#614D85" transform="translate(133,57)"/>
</svg>
